{"glyphs":{"0":{"ha":1185,"x_min":17,"x_max":1168,"o":"m 1168 576 q 1000 169 1168 338 q 593 0 832 0 q 303 77 436 0 q 94 287 171 154 q 17 576 17 419 q 185 985 17 817 q 593 1154 353 1154 q 1001 985 833 1154 q 1168 576 1168 817 m 922 249 q 990 316 922 249 q 1058 576 1058 383 q 922 906 1058 769 q 593 1042 786 1042 q 264 906 400 1042 q 128 576 128 769 q 264 249 128 383 q 593 114 400 114 q 922 249 786 114 z "},"1":{"ha":632,"x_min":17,"x_max":615,"o":"m 615 0 l 290 0 l 290 958 l 107 701 l 17 765 l 290 1154 l 615 1154 l 615 0 z "},"2":{"ha":846,"x_min":17,"x_max":829,"o":"m 829 743 q 761 490 829 604 q 569 256 693 376 l 425 114 l 725 114 l 725 0 l 151 0 l 492 336 q 658 535 599 442 q 717 743 717 629 q 633 960 717 878 q 413 1042 549 1042 q 210 964 292 1042 q 128 765 128 886 q 192 608 128 674 q 349 542 257 542 q 551 663 475 542 l 646 604 q 519 477 600 525 q 349 429 439 429 q 114 527 211 429 q 17 763 17 625 q 131 1042 17 931 q 413 1154 244 1154 q 712 1040 594 1154 q 829 743 829 925 z "},"3":{"ha":851,"x_min":17,"x_max":835,"o":"m 835 442 q 708 124 835 249 q 388 0 581 0 q 124 99 232 0 q 17 351 17 197 q 109 585 17 490 q 339 679 201 679 q 567 581 488 679 l 478 510 q 339 567 433 567 q 188 505 247 567 q 128 351 128 443 q 203 178 128 243 q 388 114 278 114 q 627 206 532 114 q 722 442 722 297 q 619 680 722 592 q 364 768 517 768 l 335 768 l 335 881 q 476 954 476 881 q 452 1016 476 990 q 392 1042 428 1042 q 317 993 340 1042 l 214 1038 q 285 1121 238 1089 q 390 1153 333 1153 q 530 1097 472 1153 q 588 958 588 1040 q 553 849 588 896 q 759 690 683 797 q 835 442 835 582 z "},"4":{"ha":801,"x_min":17,"x_max":785,"o":"m 785 0 l 457 0 l 457 264 l 17 264 l 660 1154 l 785 1154 l 785 0 m 457 376 l 457 685 l 233 376 l 457 376 z "},"5":{"ha":851,"x_min":17,"x_max":835,"o":"m 835 442 q 708 125 835 250 q 388 0 581 0 q 124 99 232 0 q 17 351 17 197 q 108 584 17 489 q 338 679 200 679 q 567 581 486 679 l 478 510 q 338 567 433 567 q 188 505 247 567 q 128 351 128 443 q 203 178 128 243 q 388 114 278 114 q 627 206 532 114 q 722 442 722 297 q 619 680 722 592 q 364 768 517 768 l 204 768 l 332 1154 l 683 1154 l 683 1042 l 411 1042 l 357 881 q 697 761 560 881 q 835 442 835 642 z "},"6":{"ha":967,"x_min":17,"x_max":950,"o":"m 515 0 q 253 77 368 0 q 77 278 138 154 q 17 547 17 403 q 90 842 17 703 q 294 1067 163 981 q 583 1154 426 1154 l 583 1042 q 260 891 392 1042 q 128 546 128 740 q 235 241 128 368 q 515 114 342 114 q 744 215 647 114 q 840 449 840 315 q 755 674 840 579 q 542 768 669 768 q 391 725 461 768 q 281 611 321 682 l 183 667 q 335 822 240 764 q 542 881 431 881 q 833 753 715 881 q 950 450 950 625 q 822 135 950 269 q 515 0 694 0 z "},"7":{"ha":836,"x_min":17,"x_max":819,"o":"m 819 1154 l 358 0 l 17 0 l 433 1042 l 93 1042 l 93 1154 l 819 1154 z "},"8":{"ha":913,"x_min":17,"x_max":896,"o":"m 896 442 q 767 129 896 258 q 456 0 639 0 q 144 129 272 0 q 17 442 17 258 q 65 642 17 547 q 200 797 114 736 q 185 885 185 849 q 265 1074 185 994 q 456 1154 344 1154 q 646 1075 567 1154 q 725 885 725 996 q 711 797 725 838 q 847 642 797 736 q 896 442 896 547 m 783 442 q 726 623 783 550 q 564 756 669 696 q 576 775 567 760 q 588 797 585 790 q 597 817 590 803 q 607 839 604 831 q 612 860 610 847 q 614 885 614 872 q 567 996 614 950 q 456 1042 521 1042 q 344 996 390 1042 q 299 885 299 950 q 349 756 299 833 q 186 623 243 696 q 129 442 129 550 q 224 210 129 306 q 456 114 319 114 q 688 209 593 114 q 783 442 783 304 z "},"9":{"ha":968,"x_min":17,"x_max":951,"o":"m 385 0 l 385 114 q 708 263 576 114 q 839 607 839 413 q 732 913 839 783 q 451 1042 625 1042 q 224 941 319 1042 q 129 707 129 840 q 214 481 129 578 q 425 385 299 385 q 689 542 592 385 l 783 486 q 631 332 726 389 q 425 275 536 275 q 134 403 251 275 q 17 707 17 532 q 145 1020 17 886 q 451 1154 274 1154 q 713 1077 597 1154 q 890 876 829 1000 q 951 607 951 751 q 878 313 951 451 q 674 87 806 174 q 385 0 542 0 z "}," ":{"ha":313,"x_min":0,"x_max":0,"o":""},"!":{"ha":372,"x_min":17,"x_max":356,"o":"m 353 1151 l 304 369 l 67 369 l 19 1151 l 353 1151 m 356 172 q 306 51 356 101 q 186 0 257 0 q 66 51 115 0 q 17 172 17 101 q 66 292 17 243 q 186 340 115 340 q 306 291 256 340 q 356 172 356 242 z "},"\"":{"ha":504,"x_min":17,"x_max":488,"o":"m 488 1179 l 433 796 l 267 796 l 267 1179 l 488 1179 m 238 796 l 71 796 l 17 1179 l 238 1179 l 238 796 z "},"#":{"ha":714,"x_min":17,"x_max":697,"o":"m 679 418 l 514 418 l 411 0 l 267 0 l 369 418 l 264 418 l 161 0 l 17 0 l 119 418 l 21 418 l 21 563 l 156 563 l 182 668 l 21 668 l 21 813 l 218 813 l 303 1156 l 447 1156 l 363 813 l 468 813 l 553 1156 l 697 1156 l 613 813 l 679 813 l 679 668 l 576 668 l 550 563 l 679 563 l 679 418 m 326 668 l 300 563 l 406 563 l 432 668 l 326 668 z "},"$":{"ha":842,"x_min":17,"x_max":825,"o":"m 825 956 l 651 956 l 651 485 q 565 248 651 351 q 349 119 479 144 l 349 0 l 238 0 l 238 115 q 17 224 106 131 l 96 301 q 281 225 168 225 q 322 229 308 225 l 322 857 q 365 983 322 926 q 475 1057 407 1039 l 475 1208 l 588 1208 l 588 1065 l 825 1065 l 825 956 z "},"%":{"ha":1004,"x_min":17,"x_max":988,"o":"m 420 1077 q 455 1043 420 1077 q 489 910 489 1008 q 419 742 489 811 q 251 674 350 674 q 85 743 154 674 q 17 910 17 813 q 85 1077 17 1008 q 251 1146 153 1146 q 420 1077 351 1146 m 355 808 q 376 829 355 808 q 397 910 397 850 q 355 1012 397 969 q 251 1054 313 1054 q 150 1012 192 1054 q 108 910 108 969 q 150 808 108 850 q 251 765 192 765 q 355 808 313 765 m 919 403 q 953 369 919 403 q 988 236 988 335 q 918 69 988 138 q 750 0 849 0 q 584 69 653 0 q 515 236 515 139 q 583 403 515 335 q 750 472 651 472 q 919 403 850 472 m 853 134 q 875 155 853 134 q 896 236 896 176 q 853 338 896 296 q 750 381 811 381 q 649 338 690 381 q 607 236 607 296 q 649 134 607 176 q 750 92 690 92 q 853 134 811 92 m 776 1149 l 329 0 l 218 0 l 665 1149 l 776 1149 z "},"&":{"ha":1017,"x_min":17,"x_max":1000,"o":"m 1000 -14 q 758 89 858 -14 q 478 -6 629 -6 q 256 44 361 -6 q 84 190 151 94 q 17 403 17 285 q 103 645 17 540 q 324 792 189 750 q 283 936 283 851 q 342 1080 283 1019 q 485 1140 401 1140 q 628 1080 568 1140 q 688 936 688 1019 q 563 738 688 811 q 684 602 632 681 q 757 440 736 524 q 778 276 769 389 q 831 460 831 357 q 679 750 831 643 l 744 840 q 890 674 838 775 q 942 460 942 574 q 836 167 942 297 q 1000 100 906 100 l 1000 -14 m 576 936 q 550 1001 576 975 q 485 1028 524 1028 q 419 1001 444 1028 q 393 936 393 975 q 458 814 393 853 q 536 858 496 817 q 576 936 576 899 m 693 182 q 661 322 661 250 q 428 699 661 542 q 218 603 306 685 q 131 403 131 522 q 237 190 131 272 q 478 107 343 107 q 693 182 597 107 z "},"'":{"ha":357,"x_min":17,"x_max":340,"o":"m 340 1151 l 286 768 l 71 768 l 17 1151 l 340 1151 z "},"(":{"ha":428,"x_min":17,"x_max":411,"o":"m 411 -161 l 293 -161 q 154 -85 213 -161 q 68 106 96 -8 q 28 319 40 221 q 17 496 17 417 q 23 630 17 556 q 48 799 29 704 q 96 970 67 894 q 176 1099 125 1046 q 293 1151 228 1151 l 411 1151 l 411 1042 l 293 1042 l 293 -50 l 411 -50 l 411 -161 z "},")":{"ha":428,"x_min":17,"x_max":411,"o":"m 135 -161 l 17 -161 l 17 -50 l 135 -50 l 135 1042 l 17 1042 l 17 1151 l 135 1151 q 274 1076 215 1151 q 360 885 333 1000 q 399 673 388 769 q 411 496 411 576 q 399 318 411 415 q 360 106 388 221 q 274 -85 333 -10 q 135 -161 215 -161 z "},"*":{"ha":482,"x_min":17,"x_max":465,"o":"m 465 864 l 407 769 l 297 836 l 297 719 l 186 719 l 186 836 l 75 769 l 17 864 l 136 936 l 17 1010 l 75 1104 l 186 1038 l 186 1154 l 297 1154 l 297 1038 l 407 1104 l 465 1010 l 347 936 l 465 864 z "},"+":{"ha":692,"x_min":17,"x_max":675,"o":"m 675 504 l 418 504 l 418 247 l 274 247 l 274 504 l 17 504 l 17 649 l 274 649 l 274 906 l 418 906 l 418 649 l 675 649 l 675 504 z "},",":{"ha":374,"x_min":17,"x_max":357,"o":"m 357 608 q 307 489 357 539 q 188 439 257 439 q 67 488 117 439 q 17 608 17 538 q 67 729 17 679 q 188 779 117 779 q 308 729 258 779 q 357 608 357 679 m 357 172 q 269 -50 357 43 q 53 -150 182 -143 l 47 -40 q 163 3 111 -36 q 58 60 99 13 q 17 172 17 108 q 67 292 17 243 q 188 340 117 340 q 307 291 257 340 q 357 172 357 242 z "},"-":{"ha":358,"x_min":17,"x_max":342,"o":"m 342 504 l 17 504 l 17 649 l 342 649 l 342 504 z "},".":{"ha":374,"x_min":17,"x_max":357,"o":"m 357 169 q 307 50 357 100 q 188 0 257 0 q 67 49 117 0 q 17 169 17 99 q 67 290 17 240 q 188 340 117 340 q 308 290 258 340 q 357 169 357 240 z "},"/":{"ha":592,"x_min":17,"x_max":575,"o":"m 575 1149 l 128 -54 l 17 -54 l 464 1149 l 575 1149 z "},":":{"ha":374,"x_min":17,"x_max":357,"o":"m 357 608 q 307 489 357 539 q 188 439 257 439 q 67 488 117 439 q 17 608 17 538 q 67 729 17 679 q 188 779 117 779 q 308 729 258 779 q 357 608 357 679 m 357 169 q 307 50 357 100 q 188 0 257 0 q 67 49 117 0 q 17 169 17 99 q 67 290 17 240 q 188 340 117 340 q 308 290 258 340 q 357 169 357 240 z "},";":{"ha":374,"x_min":17,"x_max":357,"o":"m 357 608 q 307 489 357 539 q 188 439 257 439 q 67 488 117 439 q 17 608 17 538 q 67 729 17 679 q 188 779 117 779 q 308 729 258 779 q 357 608 357 679 m 357 172 q 269 -50 357 43 q 53 -150 182 -143 l 47 -40 q 163 3 111 -36 q 58 60 99 13 q 17 172 17 108 q 67 292 17 243 q 188 340 117 340 q 307 291 257 340 q 357 172 357 242 z "},"<":{"ha":576,"x_min":17,"x_max":560,"o":"m 560 196 l 17 494 l 17 658 l 560 957 l 560 786 l 175 576 l 560 367 l 560 196 z "},"=":{"ha":692,"x_min":17,"x_max":675,"o":"m 675 615 l 17 615 l 17 760 l 675 760 l 675 615 m 675 393 l 17 393 l 17 538 l 675 538 l 675 393 z "},">":{"ha":576,"x_min":17,"x_max":560,"o":"m 560 494 l 17 196 l 17 367 l 401 576 l 17 786 l 17 957 l 560 658 l 560 494 z "},"?":{"ha":708,"x_min":17,"x_max":692,"o":"m 692 1151 l 301 357 l 196 392 l 306 1042 l 17 1042 l 17 1151 l 692 1151 m 361 172 q 312 51 361 101 q 192 0 263 0 q 71 51 121 0 q 21 172 21 101 q 71 292 21 243 q 192 340 121 340 q 311 291 261 340 q 361 172 361 242 z "},"@":{"ha":1029,"x_min":17,"x_max":1013,"o":"m 1013 0 l 592 0 q 185 169 353 0 q 17 576 17 338 q 185 983 17 814 q 592 1151 354 1151 l 1011 1151 l 1011 307 l 296 307 l 296 363 q 397 658 296 528 q 657 831 497 789 l 657 1042 l 592 1042 q 265 905 400 1042 q 129 576 129 768 q 264 250 129 385 q 592 114 400 114 l 1013 114 l 1013 0 m 657 419 l 657 715 q 494 601 560 681 q 413 419 428 521 l 657 419 z "},"A":{"ha":1272,"x_min":17,"x_max":1256,"o":"m 1256 0 l 918 0 l 850 143 l 210 143 l 140 0 l 17 0 l 574 1154 l 711 1154 l 1256 0 m 797 256 l 533 811 l 264 256 l 797 256 z "},"B":{"ha":1104,"x_min":17,"x_max":1088,"o":"m 1088 468 q 958 133 1088 265 q 628 0 829 0 q 344 99 476 0 l 344 0 l 17 0 l 17 1154 l 507 1154 q 662 1090 597 1154 q 726 935 726 1025 q 726 924 726 931 q 725 913 725 917 q 990 767 893 892 q 1088 468 1088 642 m 974 472 q 890 710 974 614 q 667 806 807 806 q 564 774 613 806 q 515 692 515 743 q 589 621 515 621 q 640 676 640 621 l 753 676 q 706 556 753 604 q 588 508 660 508 q 457 561 510 508 q 404 692 404 614 q 465 835 404 776 q 613 913 525 894 q 614 935 614 919 q 583 1010 614 979 q 507 1042 551 1042 l 344 1042 l 344 258 q 628 114 447 114 q 878 215 783 114 q 974 472 974 315 z "},"C":{"ha":886,"x_min":17,"x_max":869,"o":"m 869 0 l 592 0 q 185 169 353 0 q 17 576 17 338 q 184 985 17 817 q 592 1154 351 1154 l 869 1154 l 869 1042 l 592 1042 q 263 906 399 1042 q 126 576 126 769 q 263 249 126 385 q 592 114 400 114 l 869 114 l 869 0 z "},"D":{"ha":1028,"x_min":17,"x_max":1011,"o":"m 1011 576 q 934 287 1011 419 q 724 77 857 154 q 435 0 592 0 l 17 0 l 17 1154 l 435 1154 q 842 985 674 1154 q 1011 576 1011 817 m 900 576 q 764 906 900 769 q 435 1042 628 1042 l 371 1042 l 371 114 l 435 114 q 763 249 626 114 q 900 576 900 385 z "},"E":{"ha":778,"x_min":17,"x_max":761,"o":"m 761 1042 l 343 1042 l 343 828 l 676 828 l 676 715 l 343 715 l 343 114 l 756 114 l 756 0 l 17 0 l 17 1154 l 761 1154 l 761 1042 z "},"F":{"ha":778,"x_min":17,"x_max":761,"o":"m 761 1042 l 343 1042 l 343 828 l 676 828 l 676 715 l 343 715 l 343 0 l 17 0 l 17 1154 l 761 1154 l 761 1042 z "},"G":{"ha":1029,"x_min":17,"x_max":1013,"o":"m 1013 0 l 594 0 q 186 169 356 0 q 17 576 17 338 q 185 985 17 817 q 594 1154 354 1154 l 1013 1154 l 1013 1042 l 594 1042 q 267 906 403 1042 q 129 576 129 768 q 266 249 129 385 q 594 114 403 114 l 658 114 l 658 735 l 354 735 l 354 846 l 1013 846 l 1013 0 z "},"H":{"ha":1368,"x_min":17,"x_max":1351,"o":"m 1351 0 l 1024 0 l 1024 715 l 344 715 l 344 0 l 17 0 l 17 1154 l 344 1154 l 344 828 l 1024 828 l 1024 1154 l 1351 1154 l 1351 0 z "},"I":{"ha":361,"x_min":17,"x_max":344,"o":"m 344 0 l 17 0 l 17 1154 l 344 1154 l 344 0 z "},"J":{"ha":781,"x_min":17,"x_max":764,"o":"m 764 344 q 653 81 764 190 q 389 -28 543 -28 q 126 82 236 -28 q 17 344 17 192 l 129 344 q 206 161 129 238 q 389 85 282 85 q 435 89 419 85 l 435 1154 l 764 1154 l 764 344 z "},"K":{"ha":956,"x_min":17,"x_max":939,"o":"m 939 0 l 808 0 l 344 742 l 344 0 l 17 0 l 17 1154 l 344 1154 l 344 753 l 769 1154 l 933 1154 l 482 732 l 939 0 z "},"L":{"ha":771,"x_min":17,"x_max":754,"o":"m 754 0 l 17 0 l 17 1154 l 342 1154 l 342 114 l 754 114 l 754 0 z "},"M":{"ha":1368,"x_min":17,"x_max":1351,"o":"m 1351 0 l 1024 0 l 1024 925 l 683 321 l 343 926 l 343 0 l 17 0 l 17 1154 l 344 1154 l 683 549 l 1024 1154 l 1351 1154 l 1351 0 z "},"N":{"ha":1206,"x_min":17,"x_max":1189,"o":"m 1189 0 l 863 0 l 343 926 l 343 0 l 17 0 l 17 1154 l 344 1154 l 863 228 l 863 1154 l 1189 1154 l 1189 0 z "},"O":{"ha":1185,"x_min":17,"x_max":1168,"o":"m 1168 576 q 1000 169 1168 338 q 593 0 832 0 q 303 77 436 0 q 94 287 171 154 q 17 576 17 419 q 185 985 17 817 q 593 1154 353 1154 q 1001 985 833 1154 q 1168 576 1168 817 m 922 249 q 990 316 922 249 q 1058 576 1058 383 q 922 906 1058 769 q 593 1042 786 1042 q 264 906 400 1042 q 128 576 128 769 q 264 249 128 383 q 593 114 400 114 q 922 249 786 114 z "},"P":{"ha":714,"x_min":17,"x_max":697,"o":"m 634 1090 q 666 1057 634 1090 q 697 935 697 1025 q 634 780 697 844 q 481 715 571 715 l 343 715 l 343 0 l 17 0 l 17 1154 l 481 1154 q 634 1090 571 1154 m 588 935 q 556 1010 588 979 q 481 1042 525 1042 l 343 1042 l 343 828 l 481 828 q 556 860 525 828 q 588 935 588 892 z "},"Q":{"ha":1214,"x_min":17,"x_max":1197,"o":"m 1197 0 l 593 0 q 303 77 436 0 q 94 287 171 154 q 17 576 17 419 q 185 985 17 817 q 593 1154 353 1154 q 1001 985 833 1154 q 1168 576 1168 817 q 1113 329 1168 444 l 1197 329 l 1197 0 m 922 249 q 990 316 922 249 q 1058 576 1058 383 q 922 906 1058 769 q 593 1042 786 1042 q 264 906 400 1042 q 128 576 128 769 q 264 249 128 383 q 593 114 400 114 q 922 249 786 114 z "},"R":{"ha":956,"x_min":17,"x_max":939,"o":"m 939 0 l 808 0 l 385 715 l 343 715 l 343 0 l 17 0 l 17 1154 l 481 1154 q 634 1090 571 1154 q 697 935 697 1025 q 644 792 697 854 q 513 719 592 731 l 939 0 m 555 859 q 570 875 555 859 q 586 935 586 890 q 555 1010 586 979 q 481 1042 524 1042 l 343 1042 l 343 828 l 481 828 q 555 859 524 828 z "},"S":{"ha":836,"x_min":17,"x_max":819,"o":"m 819 885 l 358 0 l 17 0 l 419 772 l 151 772 l 350 1154 l 690 1154 l 550 885 l 819 885 z "},"T":{"ha":890,"x_min":17,"x_max":874,"o":"m 874 1042 l 610 1042 l 610 0 l 282 0 l 282 1042 l 17 1042 l 17 1154 l 874 1154 l 874 1042 z "},"U":{"ha":1251,"x_min":17,"x_max":1235,"o":"m 1235 582 q 1056 151 1235 331 q 626 -28 878 -28 q 196 151 375 -28 q 17 582 17 331 l 17 1154 l 128 1154 l 128 582 q 274 231 128 379 q 626 85 419 85 q 976 232 832 85 q 1124 582 1124 376 l 1124 1154 l 1235 1154 l 1235 582 z "},"V":{"ha":1361,"x_min":17,"x_max":1344,"o":"m 1344 1154 l 842 0 l 564 0 l 17 1154 l 357 1154 l 807 200 l 1224 1154 l 1344 1154 z "},"W":{"ha":1954,"x_min":17,"x_max":1938,"o":"m 1938 1154 l 1392 0 l 1114 0 l 976 311 l 842 0 l 564 0 l 17 1154 l 357 1154 l 808 200 l 917 450 l 608 1154 l 732 1154 l 976 589 l 1225 1154 l 1346 1154 l 1039 450 l 1149 200 l 1599 1154 l 1938 1154 z "},"X":{"ha":1021,"x_min":17,"x_max":1004,"o":"m 1004 0 l 653 0 l 413 442 l 186 0 l 61 0 l 346 558 l 17 1154 l 368 1154 l 514 889 l 647 1154 l 774 1154 l 579 772 l 1004 0 z "},"Y":{"ha":939,"x_min":17,"x_max":922,"o":"m 922 1154 l 632 514 l 632 0 l 306 0 l 306 514 l 17 1154 l 139 1154 l 421 532 l 517 532 l 799 1154 l 922 1154 z "},"Z":{"ha":967,"x_min":17,"x_max":950,"o":"m 950 0 l 17 0 l 533 1042 l 199 1042 l 199 1154 l 933 1154 l 418 114 l 950 114 l 950 0 z "},"[":{"ha":535,"x_min":17,"x_max":518,"o":"m 518 -222 l 17 -222 l 17 1154 l 518 1154 l 518 1040 l 342 1040 l 342 -108 l 518 -108 l 518 -222 z "},"\\":{"ha":592,"x_min":17,"x_max":575,"o":"m 464 -54 l 17 1149 l 128 1149 l 575 -54 l 464 -54 z "},"]":{"ha":535,"x_min":17,"x_max":518,"o":"m 518 -222 l 17 -222 l 17 -108 l 193 -108 l 193 1040 l 17 1040 l 17 1154 l 518 1154 l 518 -222 z "},"^":{"ha":807,"x_min":33,"x_max":774,"o":"m 33 486 l 326 1153 l 481 1153 l 774 486 l 606 486 l 403 946 l 201 486 l 33 486 z "},"_":{"ha":694,"x_min":0,"x_max":694,"o":"m 694 -146 l 0 -146 l 0 -1 l 694 -1 l 694 -146 z "},"`":{"ha":361,"x_min":17,"x_max":344,"o":"m 344 1000 l 304 1000 l 17 1332 l 142 1332 l 344 1000 z "},"a":{"ha":1082,"x_min":14,"x_max":1067,"o":"m 1067 0 l 781 0 l 722 122 l 178 122 l 119 0 l 14 0 l 488 981 l 604 981 l 1067 0 m 678 217 l 453 689 l 224 217 l 678 217 z "},"b":{"ha":939,"x_min":14,"x_max":925,"o":"m 925 397 q 815 113 925 225 q 533 0 706 0 q 293 83 406 0 l 293 0 l 14 0 l 14 981 l 431 981 q 563 926 508 981 q 618 794 618 871 q 617 785 618 792 q 617 775 617 779 q 842 651 760 758 q 925 397 925 544 m 828 401 q 756 603 828 522 q 567 685 685 685 q 479 658 521 685 q 438 588 438 631 q 500 528 438 528 q 544 575 544 528 l 640 575 q 600 473 640 514 q 500 432 560 432 q 388 477 433 432 q 343 588 343 522 q 394 710 343 660 q 521 775 446 761 q 522 794 522 782 q 496 859 522 833 q 431 885 469 885 l 293 885 l 293 219 q 533 97 381 97 q 747 183 667 97 q 828 401 828 268 z "},"c":{"ha":753,"x_min":14,"x_max":739,"o":"m 739 0 l 503 0 q 157 144 300 0 q 14 490 14 288 q 156 838 14 694 q 503 981 299 981 l 739 981 l 739 885 l 503 885 q 223 769 339 885 q 107 490 107 654 q 224 213 107 328 q 503 97 340 97 l 739 97 l 739 0 z "},"d":{"ha":874,"x_min":14,"x_max":860,"o":"m 860 490 q 717 143 860 286 q 369 0 574 0 l 14 0 l 14 981 l 369 981 q 717 837 574 981 q 860 490 860 693 m 765 490 q 649 769 765 654 q 369 885 533 885 l 315 885 l 315 97 l 369 97 q 649 213 532 97 q 765 490 765 328 z "},"e":{"ha":661,"x_min":14,"x_max":647,"o":"m 647 885 l 292 885 l 292 704 l 575 704 l 575 608 l 292 608 l 292 97 l 642 97 l 642 0 l 14 0 l 14 981 l 647 981 l 647 885 z "},"f":{"ha":661,"x_min":14,"x_max":647,"o":"m 647 885 l 292 885 l 292 704 l 575 704 l 575 608 l 292 608 l 292 0 l 14 0 l 14 981 l 647 981 l 647 885 z "},"g":{"ha":875,"x_min":14,"x_max":861,"o":"m 861 0 l 506 0 q 158 143 301 0 q 14 490 14 286 q 157 838 14 694 q 506 981 300 981 l 861 981 l 861 885 l 506 885 q 226 769 342 885 q 110 490 110 653 q 226 212 110 326 q 506 97 342 97 l 560 97 l 560 625 l 301 625 l 301 719 l 861 719 l 861 0 z "},"h":{"ha":1163,"x_min":14,"x_max":1149,"o":"m 1149 0 l 869 0 l 869 608 l 293 608 l 293 0 l 14 0 l 14 981 l 293 981 l 293 704 l 869 704 l 869 981 l 1149 981 l 1149 0 z "},"i":{"ha":307,"x_min":14,"x_max":293,"o":"m 293 0 l 14 0 l 14 981 l 293 981 l 293 0 z "},"j":{"ha":664,"x_min":14,"x_max":649,"o":"m 649 293 q 556 69 649 161 q 331 -24 463 -24 q 108 70 201 -24 q 14 293 14 164 l 110 293 q 174 137 110 201 q 331 72 239 72 q 369 75 357 72 l 369 981 l 649 981 l 649 293 z "},"k":{"ha":813,"x_min":14,"x_max":799,"o":"m 799 0 l 688 0 l 293 631 l 293 0 l 14 0 l 14 981 l 293 981 l 293 640 l 654 981 l 793 981 l 410 622 l 799 0 z "},"l":{"ha":656,"x_min":14,"x_max":642,"o":"m 642 0 l 14 0 l 14 981 l 290 981 l 290 97 l 642 97 l 642 0 z "},"m":{"ha":1163,"x_min":14,"x_max":1149,"o":"m 1149 0 l 869 0 l 869 786 l 581 272 l 292 788 l 292 0 l 14 0 l 14 981 l 293 981 l 581 467 l 869 981 l 1149 981 l 1149 0 z "},"n":{"ha":1025,"x_min":14,"x_max":1011,"o":"m 1011 0 l 733 0 l 292 788 l 292 0 l 14 0 l 14 981 l 293 981 l 733 193 l 733 981 l 1011 981 l 1011 0 z "},"o":{"ha":1007,"x_min":14,"x_max":993,"o":"m 993 490 q 850 144 993 288 q 504 0 707 0 q 157 143 300 0 q 14 490 14 286 q 157 838 14 694 q 504 981 300 981 q 851 838 708 981 q 993 490 993 694 m 784 212 q 842 269 784 212 q 900 490 900 326 q 784 769 900 654 q 504 885 668 885 q 224 769 340 885 q 108 490 108 654 q 224 212 108 326 q 504 97 340 97 q 784 212 668 97 z "},"p":{"ha":607,"x_min":14,"x_max":593,"o":"m 539 926 q 566 898 539 926 q 593 794 593 871 q 539 663 593 718 q 408 608 485 608 l 292 608 l 292 0 l 14 0 l 14 981 l 408 981 q 539 926 485 981 m 500 794 q 474 859 500 833 q 408 885 447 885 l 292 885 l 292 704 l 408 704 q 473 731 446 704 q 500 794 500 757 z "},"q":{"ha":1032,"x_min":14,"x_max":1018,"o":"m 1018 0 l 504 0 q 157 143 300 0 q 14 490 14 286 q 157 838 14 694 q 504 981 300 981 q 851 838 708 981 q 993 490 993 694 q 946 279 993 378 l 1018 279 l 1018 0 m 784 212 q 842 269 784 212 q 900 490 900 326 q 784 769 900 654 q 504 885 668 885 q 224 769 340 885 q 108 490 108 654 q 224 212 108 326 q 504 97 340 97 q 784 212 668 97 z "},"r":{"ha":813,"x_min":14,"x_max":799,"o":"m 799 0 l 688 0 l 326 608 l 292 608 l 292 0 l 14 0 l 14 981 l 408 981 q 539 926 485 981 q 593 794 593 871 q 549 674 593 726 q 436 611 504 621 l 799 0 m 472 731 q 485 744 472 731 q 499 794 499 757 q 472 858 499 832 q 408 885 446 885 l 292 885 l 292 704 l 408 704 q 472 731 446 704 z "},"s":{"ha":718,"x_min":14,"x_max":704,"o":"m 704 885 l 557 885 l 557 293 q 463 69 557 161 q 239 -24 369 -24 q 14 71 108 -24 l 82 138 q 239 72 146 72 q 276 75 264 72 l 276 801 q 328 928 276 876 q 456 979 381 979 l 704 979 l 704 885 z "},"t":{"ha":757,"x_min":14,"x_max":743,"o":"m 743 885 l 518 885 l 518 0 l 240 0 l 240 885 l 14 885 l 14 981 l 743 981 l 743 885 z "},"u":{"ha":1064,"x_min":14,"x_max":1050,"o":"m 1050 494 q 898 128 1050 281 q 532 -24 746 -24 q 166 128 318 -24 q 14 494 14 281 l 14 981 l 108 981 l 108 494 q 232 196 108 324 q 532 72 358 72 q 831 197 708 72 q 956 494 956 322 l 956 981 l 1050 981 l 1050 494 z "},"v":{"ha":1157,"x_min":14,"x_max":1143,"o":"m 1143 981 l 715 0 l 479 0 l 14 981 l 303 981 l 686 169 l 1040 981 l 1143 981 z "},"w":{"ha":1661,"x_min":14,"x_max":1647,"o":"m 1647 981 l 1183 0 l 947 0 l 831 264 l 715 0 l 479 0 l 14 981 l 303 981 l 688 169 l 779 382 l 517 981 l 622 981 l 831 500 l 1042 981 l 1144 981 l 883 382 l 976 169 l 1358 981 l 1647 981 z "},"x":{"ha":868,"x_min":14,"x_max":854,"o":"m 854 0 l 554 0 l 350 375 l 158 0 l 51 0 l 294 475 l 14 981 l 313 981 l 436 756 l 550 981 l 657 981 l 492 657 l 854 0 z "},"y":{"ha":799,"x_min":14,"x_max":783,"o":"m 783 981 l 538 436 l 538 0 l 260 0 l 260 436 l 14 981 l 118 981 l 358 453 l 439 453 l 679 981 l 783 981 z "},"z":{"ha":822,"x_min":14,"x_max":807,"o":"m 807 0 l 14 0 l 453 885 l 169 885 l 169 981 l 793 981 l 356 97 l 807 97 l 807 0 z "},"{":{"ha":747,"x_min":17,"x_max":731,"o":"m 601 -28 l 601 83 q 731 -43 731 83 q 664 -166 731 -119 q 524 -212 597 -212 q 260 -101 358 -212 q 161 176 161 11 l 161 331 l 17 446 l 161 557 l 161 750 q 260 1027 161 915 q 524 1139 358 1139 q 664 1092 597 1139 q 731 969 731 1046 q 601 843 731 843 l 601 954 q 619 969 619 954 q 589 1012 619 996 q 524 1028 558 1028 q 341 948 410 1028 q 272 750 272 868 l 272 503 l 196 444 l 272 383 l 272 176 q 341 -22 272 58 q 524 -101 410 -101 q 589 -85 558 -101 q 619 -43 619 -69 q 601 -28 619 -28 z "},"|":{"ha":17,"x_min":0,"x_max":0,"o":""},"}":{"ha":747,"x_min":17,"x_max":731,"o":"m 146 83 l 146 -28 q 128 -43 128 -28 q 158 -85 128 -69 q 224 -101 189 -101 q 406 -22 338 -101 q 475 176 475 58 l 475 383 l 551 444 l 475 503 l 475 750 q 406 948 475 868 q 224 1028 338 1028 q 158 1012 189 1028 q 128 969 128 996 q 146 954 128 954 l 146 843 q 17 969 17 843 q 83 1092 17 1046 q 224 1139 150 1139 q 488 1027 389 1139 q 586 750 586 915 l 586 557 l 731 446 l 586 331 l 586 176 q 488 -101 586 11 q 224 -212 389 -212 q 83 -166 150 -212 q 17 -43 17 -119 q 146 83 17 83 z "},"~":{"ha":1118,"x_min":33,"x_max":1085,"o":"m 975 718 l 1085 608 q 806 485 958 485 q 552 545 719 485 q 318 606 385 606 q 143 528 221 606 l 33 636 q 319 761 157 761 q 569 700 403 761 q 804 639 736 639 q 975 718 896 639 z "},"¡":{"ha":372,"x_min":17,"x_max":356,"o":"m 19 -112 l 68 669 l 306 669 l 353 -112 l 19 -112 m 17 867 q 66 988 17 938 q 186 1039 115 1039 q 306 988 257 1039 q 356 867 356 938 q 306 747 356 796 q 186 699 257 699 q 67 748 117 699 q 17 867 17 797 z "},"¢":{"ha":586,"x_min":17,"x_max":569,"o":"m 569 197 l 451 197 l 451 0 l 339 0 l 339 201 q 108 330 200 224 q 17 576 17 436 q 108 824 17 717 q 339 953 200 932 l 339 1154 l 451 1154 l 451 957 l 569 957 l 569 844 l 451 844 l 451 308 l 569 308 l 569 197 m 339 315 l 339 838 q 188 744 246 818 q 129 576 129 671 q 188 410 129 483 q 339 315 247 336 z "},"£":{"ha":964,"x_min":17,"x_max":947,"o":"m 947 756 q 908 581 947 667 l 807 625 q 836 756 836 692 q 753 960 836 881 q 544 1039 669 1039 q 312 933 394 1039 q 229 672 229 826 q 253 475 229 576 l 517 475 l 517 365 l 285 365 l 364 114 l 858 114 l 858 0 l 149 0 l 149 114 l 247 114 l 168 365 l 17 365 l 17 475 l 138 475 q 115 672 115 592 q 231 1013 115 876 q 547 1150 347 1150 q 835 1040 722 1150 q 947 756 947 929 z "},"¤":{"ha":1040,"x_min":17,"x_max":1024,"o":"m 1024 1042 l 746 1042 q 464 947 589 1042 q 299 703 339 853 l 978 703 l 893 593 l 281 593 l 281 563 l 872 563 l 788 451 l 299 451 q 467 208 343 301 q 746 114 590 114 l 746 0 q 387 127 544 0 q 185 451 229 254 l 17 451 l 101 563 l 169 563 l 169 593 l 39 593 l 122 703 l 185 703 q 385 1026 228 901 q 746 1151 543 1151 l 1024 1151 l 1024 1042 z "},"¥":{"ha":936,"x_min":17,"x_max":919,"o":"m 919 1151 l 704 703 l 915 703 l 915 593 l 651 593 l 638 563 l 915 563 l 915 451 l 631 451 l 631 0 l 304 0 l 304 451 l 18 451 l 18 563 l 296 563 l 283 593 l 18 593 l 18 703 l 229 703 l 17 1151 l 139 1151 l 467 464 l 794 1151 l 919 1151 z "},"¦":{"ha":33,"x_min":0,"x_max":0,"o":""},"§":{"ha":3014,"x_min":38,"x_max":2975,"o":"m 38 1042 l 215 1042 l 215 0 l 38 0 l 38 1042 m 2806 1042 l 2975 1042 l 2975 0 l 2806 0 l 2806 1042 m 1735 650 q 1791 753 1756 706 q 1874 834 1826 800 q 1980 887 1922 868 q 2100 906 2038 906 q 2220 887 2163 906 q 2326 834 2278 868 q 2409 753 2374 800 q 2465 650 2444 706 l 2636 650 q 2585 781 2619 719 q 2503 894 2551 843 q 2397 982 2456 944 q 2269 1042 2338 1019 l 1931 1042 q 1803 982 1863 1019 q 1697 894 1744 944 q 1615 781 1649 843 q 1564 650 1581 719 l 1735 650 m 2465 383 q 2409 281 2444 328 q 2326 199 2374 233 q 2220 147 2278 165 q 2100 128 2163 128 q 1980 147 2038 128 q 1874 199 1922 165 q 1791 281 1826 233 q 1735 383 1756 328 l 1564 383 q 1688 149 1597 250 q 1906 0 1779 49 l 2296 0 q 2513 149 2422 49 q 2636 383 2603 250 l 2465 383 m 1282 383 q 1225 281 1261 328 q 1141 199 1189 233 q 1035 147 1093 165 q 915 128 978 128 q 796 147 853 128 q 691 199 739 165 q 607 281 643 233 q 550 383 571 328 l 381 383 q 428 258 397 317 q 503 149 460 199 q 603 62 547 100 q 721 0 658 24 l 1111 0 q 1229 62 1174 24 q 1328 149 1285 100 q 1403 258 1372 199 q 1451 383 1435 317 l 1282 383 m 551 650 q 608 753 572 706 q 691 834 643 800 q 796 887 739 868 q 915 906 853 906 q 1035 887 978 906 q 1141 834 1093 868 q 1224 753 1189 800 q 1281 650 1260 706 l 1451 650 q 1401 781 1435 719 q 1319 894 1367 843 q 1212 982 1271 944 q 1086 1042 1153 1019 l 746 1042 q 620 982 679 1019 q 513 894 561 944 q 431 781 465 843 q 381 650 397 719 l 551 650 m 381 622 l 513 622 l 513 581 l 435 581 l 435 535 l 504 535 l 504 490 l 433 490 l 433 410 l 381 410 l 381 622 m 1397 622 l 1458 622 l 1557 481 l 1557 622 l 1610 622 l 1610 410 l 1561 410 l 1449 554 l 1449 410 l 1397 410 l 1397 622 m 2024 622 l 2183 622 l 2183 569 l 2139 569 l 2139 410 l 2068 410 l 2068 571 l 2024 571 l 2024 622 m 919 633 q 878 628 900 633 q 839 608 857 622 q 808 569 821 594 q 796 506 796 544 q 813 444 796 467 q 851 411 831 422 q 908 394 876 397 q 968 411 942 397 q 1010 446 992 422 q 1029 514 1029 469 q 1012 582 1029 558 q 974 617 994 606 q 919 633 949 631 m 910 447 q 879 457 893 450 q 859 476 868 464 q 850 510 850 488 q 856 544 850 531 q 872 567 863 558 q 894 578 882 575 q 915 581 906 581 q 944 572 931 579 q 965 551 956 565 q 975 514 975 538 q 965 476 975 489 q 942 456 954 463 q 910 447 926 449 m 2486 463 q 2512 453 2497 457 q 2544 449 2526 449 q 2569 453 2558 449 q 2579 469 2579 457 q 2563 489 2579 483 q 2528 501 2547 494 q 2494 519 2510 507 q 2479 561 2479 532 q 2488 592 2479 579 q 2509 612 2496 604 q 2539 622 2522 619 q 2571 625 2556 625 q 2625 617 2604 625 l 2621 574 q 2575 583 2601 583 q 2551 581 2564 583 q 2538 564 2538 578 q 2553 547 2538 551 q 2587 535 2568 542 q 2621 517 2606 529 q 2636 476 2636 506 q 2608 422 2636 436 q 2544 408 2581 408 q 2513 410 2529 408 q 2481 417 2496 411 l 2486 463 z "},"¨":{"ha":460,"x_min":17,"x_max":443,"o":"m 416 1166 q 430 1152 416 1166 q 443 1099 443 1138 q 415 1032 443 1060 q 347 1004 386 1004 q 282 1032 308 1004 q 256 1099 256 1060 q 283 1167 256 1139 q 351 1194 311 1194 q 416 1166 389 1194 m 204 1099 q 177 1031 204 1058 q 110 1004 150 1004 q 44 1032 71 1004 q 17 1099 17 1060 q 43 1167 17 1139 q 110 1194 69 1194 q 176 1166 149 1194 q 204 1099 204 1138 z "},"©":{"ha":1208,"x_min":17,"x_max":1192,"o":"m 807 165 l 608 165 q 314 288 436 165 q 192 583 192 410 q 313 879 192 757 q 608 1001 435 1001 l 807 1001 l 807 900 l 608 900 q 383 808 476 900 q 290 583 290 715 q 383 360 290 453 q 608 268 476 268 l 807 268 l 807 165 m 1192 588 q 1020 172 1192 344 q 606 0 849 0 q 189 172 361 0 q 17 588 17 344 q 188 1006 17 833 q 606 1178 360 1178 q 1021 1006 850 1178 q 1192 588 1192 833 m 963 231 q 1037 305 963 231 q 1111 588 1111 378 q 963 946 1111 797 q 606 1094 815 1094 q 247 946 394 1094 q 99 588 99 797 q 247 231 99 378 q 606 85 394 85 q 963 231 815 85 z "},"ª":{"ha":776,"x_min":17,"x_max":760,"o":"m 760 458 l 557 458 l 517 544 l 132 544 l 90 458 l 17 458 l 351 1151 l 433 1151 l 760 458 m 485 611 l 326 944 l 165 611 l 485 611 z "},"«":{"ha":465,"x_min":17,"x_max":449,"o":"m 449 299 l 389 299 l 183 563 l 389 828 l 449 828 l 328 563 l 449 299 m 282 299 l 222 299 l 17 563 l 222 828 l 282 828 l 161 563 l 282 299 z "},"¬":{"ha":692,"x_min":17,"x_max":675,"o":"m 675 649 l 675 344 l 531 344 l 531 504 l 17 504 l 17 649 l 675 649 z "},"®":{"ha":572,"x_min":17,"x_max":556,"o":"m 556 879 q 477 689 556 768 q 286 610 399 610 q 96 689 175 610 q 17 879 17 768 q 95 1071 17 992 q 286 1150 174 1150 q 477 1071 399 1150 q 556 879 556 992 m 440 726 q 472 757 440 726 q 504 879 504 789 q 440 1033 504 969 q 286 1097 376 1097 q 132 1033 196 1097 q 68 879 68 969 q 132 726 68 789 q 286 663 196 663 q 440 726 376 663 m 426 728 l 390 728 l 274 926 l 263 926 l 263 728 l 172 728 l 172 1047 l 300 1047 q 342 1029 325 1047 q 360 988 360 1011 q 346 948 360 965 q 310 926 332 931 l 426 728 m 329 988 q 321 1008 329 999 q 300 1017 313 1017 l 263 1017 l 263 957 l 300 957 q 321 966 313 957 q 329 988 329 975 z "},"¯":{"ha":358,"x_min":17,"x_max":342,"o":"m 342 1038 l 17 1038 l 17 1154 l 342 1154 l 342 1038 z "},"°":{"ha":364,"x_min":17,"x_max":347,"o":"m 299 1093 q 323 1069 299 1093 q 347 976 347 1044 q 299 860 347 908 q 183 811 250 811 q 65 860 114 811 q 17 976 17 908 q 65 1093 17 1044 q 183 1142 114 1142 q 299 1093 251 1142 m 263 896 q 280 913 263 896 q 296 976 296 929 q 263 1057 296 1024 q 183 1090 231 1090 q 102 1057 136 1090 q 68 976 68 1024 q 101 896 68 929 q 183 863 135 863 q 263 896 231 863 z "},"±":{"ha":692,"x_min":17,"x_max":675,"o":"m 675 0 l 17 0 l 17 144 l 675 144 l 675 0 m 675 504 l 418 504 l 418 247 l 274 247 l 274 504 l 17 504 l 17 649 l 274 649 l 274 906 l 418 906 l 418 649 l 675 649 l 675 504 z "},"²":{"ha":439,"x_min":17,"x_max":422,"o":"m 422 950 q 388 824 422 881 q 293 707 354 767 l 221 636 l 371 636 l 371 579 l 83 579 l 254 747 q 337 846 307 799 q 367 950 367 893 q 324 1059 367 1018 q 214 1100 282 1100 q 113 1061 154 1100 q 72 961 72 1022 q 104 883 72 915 q 182 850 136 850 q 283 910 246 850 l 331 881 q 267 817 307 840 q 182 793 228 793 q 65 842 114 793 q 17 960 17 890 q 74 1099 17 1043 q 214 1156 131 1156 q 364 1099 306 1156 q 422 950 422 1042 z "},"³":{"ha":442,"x_min":17,"x_max":425,"o":"m 425 801 q 361 643 425 706 q 201 581 297 581 q 70 630 124 581 q 17 756 17 679 q 63 872 17 825 q 178 919 108 919 q 292 871 251 919 l 247 835 q 178 864 225 864 q 102 833 132 864 q 72 756 72 801 q 109 669 72 701 q 201 638 146 638 q 322 683 274 638 q 369 801 369 729 q 318 920 369 876 q 190 964 267 964 l 175 964 l 175 1021 q 246 1057 246 1021 q 234 1089 246 1076 q 204 1101 222 1101 q 167 1076 178 1101 l 115 1099 q 151 1141 126 1125 q 203 1157 175 1157 q 272 1128 243 1157 q 301 1060 301 1100 q 285 1004 301 1029 q 388 925 350 979 q 425 801 425 871 z "},"´":{"ha":361,"x_min":17,"x_max":344,"o":"m 344 1333 l 57 1001 l 17 1001 l 219 1333 l 344 1333 z "},"µ":{"ha":1253,"x_min":17,"x_max":1236,"o":"m 17 -144 l 18 835 l 131 835 l 131 540 q 275 231 143 365 q 628 85 421 85 q 978 231 832 85 q 1125 582 1125 378 l 1125 835 l 1236 835 l 1236 582 q 1058 151 1236 331 q 628 -28 879 -28 q 345 41 476 -28 q 131 229 214 110 l 131 -144 l 17 -144 z "},"¶":{"ha":714,"x_min":17,"x_max":697,"o":"m 80 780 q 48 812 80 780 q 17 935 17 844 q 80 1090 17 1025 q 233 1154 143 1154 l 697 1154 l 697 -222 l 593 -222 l 593 1049 l 475 1049 l 475 -222 l 371 -222 l 371 715 l 233 715 q 80 780 143 715 z "},"·":{"ha":374,"x_min":17,"x_max":357,"o":"m 357 608 q 307 489 357 539 q 188 439 257 439 q 67 488 117 439 q 17 608 17 538 q 67 729 17 679 q 188 779 117 779 q 308 729 258 779 q 357 608 357 679 z "},"¸":{"ha":419,"x_min":17,"x_max":403,"o":"m 403 -176 q 348 -262 403 -232 q 233 -293 293 -293 q 17 -243 108 -293 l 17 -204 q 100 -226 49 -226 q 181 -207 142 -226 q 221 -150 221 -187 q 167 -87 221 -106 q 243 19 181 -71 l 313 19 l 256 -60 q 358 -96 313 -67 q 403 -176 403 -125 z "},"¹":{"ha":332,"x_min":17,"x_max":315,"o":"m 315 576 l 153 576 l 153 1056 l 61 926 l 17 958 l 153 1153 l 315 1153 l 315 576 z "},"º":{"ha":724,"x_min":17,"x_max":707,"o":"m 607 1050 q 657 999 607 1050 q 707 804 707 949 q 606 559 707 660 q 363 458 506 458 q 118 560 219 458 q 17 804 17 661 q 118 1050 17 949 q 363 1151 219 1151 q 607 1050 507 1151 m 642 804 q 560 1001 642 919 q 363 1083 478 1083 q 165 1001 247 1083 q 83 804 83 919 q 165 607 83 688 q 363 526 246 526 q 560 607 479 526 q 642 804 642 688 z "},"»":{"ha":465,"x_min":17,"x_max":449,"o":"m 76 299 l 17 299 l 138 563 l 17 828 l 76 828 l 282 563 l 76 299 m 243 299 l 183 299 l 304 563 l 183 828 l 243 828 l 449 563 l 243 299 z "},"¼":{"ha":1186,"x_min":17,"x_max":1169,"o":"m 418 374 l 200 374 l 200 1015 l 78 843 l 17 886 l 200 1147 l 418 1147 l 418 374 m 1164 0 l 944 0 l 944 176 l 649 176 l 1081 774 l 1164 774 l 1164 0 m 944 253 l 944 458 l 794 253 l 944 253 m 1169 1149 l 390 0 l 279 0 l 1058 1149 l 1169 1149 z "},"½":{"ha":1468,"x_min":17,"x_max":1451,"o":"m 1451 497 q 1406 328 1451 404 q 1278 171 1361 253 l 1181 76 l 1382 76 l 1382 0 l 997 0 l 1225 225 q 1336 358 1296 294 q 1376 497 1376 421 q 1320 644 1376 589 q 1172 699 1264 699 q 1037 646 1092 699 q 982 513 982 593 q 1025 407 982 451 q 1129 363 1068 363 q 1265 444 1214 363 l 1329 404 q 1244 319 1297 351 q 1129 288 1190 288 q 972 353 1038 288 q 907 511 907 418 q 983 699 907 624 q 1172 774 1060 774 q 1373 697 1294 774 q 1451 497 1451 619 m 418 374 l 200 374 l 200 1015 l 78 843 l 17 886 l 200 1147 l 418 1147 l 418 374 m 1169 1149 l 390 0 l 279 0 l 1058 1149 l 1169 1149 z "},"¾":{"ha":1194,"x_min":17,"x_max":1178,"o":"m 565 669 q 480 457 565 540 q 265 374 394 374 q 88 440 160 374 q 17 610 17 506 q 78 765 17 701 q 232 829 140 829 q 385 763 332 829 l 325 715 q 232 753 296 753 q 131 712 171 753 q 92 610 92 671 q 142 494 92 538 q 265 450 192 450 q 425 512 361 450 q 489 669 489 574 q 421 830 489 771 q 250 889 353 889 l 229 889 l 229 964 q 325 1013 325 964 q 308 1055 325 1038 q 268 1072 292 1072 q 218 1039 233 1072 l 149 1068 q 197 1124 165 1103 q 267 1146 229 1146 q 360 1108 322 1146 q 399 1015 399 1071 q 376 942 399 974 q 515 836 464 908 q 565 669 565 764 m 1172 0 l 953 0 l 953 176 l 657 176 l 1089 774 l 1172 774 l 1172 0 m 953 253 l 953 458 l 803 253 l 953 253 m 1178 1149 l 399 0 l 288 0 l 1067 1149 l 1178 1149 z "},"¿":{"ha":708,"x_min":17,"x_max":692,"o":"m 17 -112 l 407 682 l 513 647 l 403 -3 l 692 -3 l 692 -112 l 17 -112 m 347 867 q 397 988 347 938 q 517 1039 446 1039 q 638 988 588 1039 q 688 867 688 938 q 638 747 688 796 q 517 699 588 699 q 397 748 447 699 q 347 867 347 797 z "},"À":{"ha":1272,"x_min":17,"x_max":1256,"o":"m 1256 0 l 918 0 l 850 143 l 210 143 l 140 0 l 17 0 l 574 1154 l 711 1154 l 1256 0 m 797 256 l 533 811 l 264 256 l 797 256 m 694 1175 l 654 1175 l 367 1507 l 492 1507 l 694 1175 z "},"Á":{"ha":1272,"x_min":17,"x_max":1256,"o":"m 1256 0 l 918 0 l 850 143 l 210 143 l 140 0 l 17 0 l 574 1154 l 711 1154 l 1256 0 m 797 256 l 533 811 l 264 256 l 797 256 m 881 1508 l 593 1176 l 553 1176 l 756 1508 l 881 1508 z "},"Â":{"ha":1272,"x_min":17,"x_max":1256,"o":"m 1256 0 l 918 0 l 850 143 l 210 143 l 140 0 l 17 0 l 574 1154 l 711 1154 l 1256 0 m 797 256 l 533 811 l 264 256 l 797 256 m 940 1172 l 896 1172 l 636 1392 l 375 1172 l 331 1172 l 590 1493 l 681 1493 l 940 1172 z "},"Ã":{"ha":1272,"x_min":17,"x_max":1256,"o":"m 1256 0 l 918 0 l 850 143 l 210 143 l 140 0 l 17 0 l 574 1154 l 711 1154 l 1256 0 m 797 256 l 533 811 l 264 256 l 797 256 m 935 1369 l 935 1360 q 883 1235 935 1285 q 757 1185 832 1185 q 701 1193 728 1185 l 492 1261 q 461 1267 472 1267 q 397 1240 426 1267 q 367 1179 367 1214 l 336 1179 q 385 1315 336 1261 q 515 1368 435 1368 q 569 1360 542 1368 l 782 1292 q 811 1288 797 1288 q 875 1311 847 1288 q 904 1369 903 1335 l 935 1369 z "},"Ä":{"ha":1272,"x_min":17,"x_max":1256,"o":"m 1256 0 l 918 0 l 850 143 l 210 143 l 140 0 l 17 0 l 574 1154 l 711 1154 l 1256 0 m 797 256 l 533 811 l 264 256 l 797 256 m 822 1341 q 835 1327 822 1341 q 849 1274 849 1313 q 820 1207 849 1235 q 753 1179 792 1179 q 688 1207 714 1179 q 661 1274 661 1235 q 689 1342 661 1314 q 757 1369 717 1369 q 822 1341 794 1369 m 610 1274 q 583 1206 610 1233 q 515 1179 556 1179 q 449 1207 476 1179 q 422 1274 422 1235 q 449 1342 422 1314 q 515 1369 475 1369 q 582 1341 554 1369 q 610 1274 610 1313 z "},"Å":{"ha":1272,"x_min":17,"x_max":1256,"o":"m 1256 0 l 918 0 l 850 143 l 210 143 l 140 0 l 17 0 l 574 1154 l 711 1154 l 1256 0 m 797 256 l 533 811 l 264 256 l 797 256 m 835 1375 q 777 1235 835 1293 q 638 1178 719 1178 q 496 1235 554 1178 q 438 1375 438 1292 q 494 1517 438 1458 q 633 1575 550 1575 q 776 1517 718 1575 q 835 1375 835 1460 m 763 1375 q 726 1464 763 1428 q 638 1500 690 1500 q 549 1464 585 1500 q 513 1375 513 1428 q 549 1287 513 1322 q 638 1251 585 1251 q 726 1288 690 1251 q 763 1375 763 1324 z "},"Æ":{"ha":1507,"x_min":17,"x_max":1490,"o":"m 1490 0 l 746 0 l 746 326 l 318 326 l 143 0 l 17 0 l 635 1151 l 1478 1151 l 1478 1042 l 1074 1042 l 1074 438 l 1406 438 l 1406 326 l 1074 326 l 1074 114 l 1490 114 l 1490 0 m 746 438 l 746 1042 l 701 1042 l 379 438 l 746 438 z "},"Ç":{"ha":886,"x_min":17,"x_max":869,"o":"m 869 0 l 592 0 q 185 169 353 0 q 17 576 17 338 q 184 985 17 817 q 592 1154 351 1154 l 869 1154 l 869 1042 l 592 1042 q 263 906 399 1042 q 126 576 126 769 q 263 249 126 385 q 592 114 400 114 l 869 114 l 869 0 m 678 -176 q 623 -262 678 -232 q 508 -293 568 -293 q 292 -243 383 -293 l 292 -204 q 375 -226 324 -226 q 456 -207 417 -226 q 496 -150 496 -187 q 442 -87 496 -106 q 518 19 456 -71 l 588 19 l 531 -60 q 633 -96 588 -67 q 678 -176 678 -125 z "},"È":{"ha":778,"x_min":17,"x_max":761,"o":"m 761 1042 l 343 1042 l 343 828 l 676 828 l 676 715 l 343 715 l 343 114 l 756 114 l 756 0 l 17 0 l 17 1154 l 761 1154 l 761 1042 m 553 1175 l 513 1175 l 225 1507 l 350 1507 l 553 1175 z "},"É":{"ha":778,"x_min":17,"x_max":761,"o":"m 761 1042 l 343 1042 l 343 828 l 676 828 l 676 715 l 343 715 l 343 114 l 756 114 l 756 0 l 17 0 l 17 1154 l 761 1154 l 761 1042 m 553 1508 l 265 1176 l 225 1176 l 428 1508 l 553 1508 z "},"Ê":{"ha":778,"x_min":17,"x_max":761,"o":"m 761 1042 l 343 1042 l 343 828 l 676 828 l 676 715 l 343 715 l 343 114 l 756 114 l 756 0 l 17 0 l 17 1154 l 761 1154 l 761 1042 m 693 1172 l 649 1172 l 389 1392 l 128 1172 l 83 1172 l 343 1493 l 433 1493 l 693 1172 z "},"Ë":{"ha":778,"x_min":17,"x_max":761,"o":"m 761 1042 l 343 1042 l 343 828 l 676 828 l 676 715 l 343 715 l 343 114 l 756 114 l 756 0 l 17 0 l 17 1154 l 761 1154 l 761 1042 m 574 1341 q 588 1327 574 1341 q 601 1274 601 1313 q 573 1207 601 1235 q 506 1179 544 1179 q 440 1207 467 1179 q 414 1274 414 1235 q 442 1342 414 1314 q 510 1369 469 1369 q 574 1341 547 1369 m 363 1274 q 335 1206 363 1233 q 268 1179 308 1179 q 202 1207 229 1179 q 175 1274 175 1235 q 201 1342 175 1314 q 268 1369 228 1369 q 335 1341 307 1369 q 363 1274 363 1313 z "},"Ì":{"ha":361,"x_min":17,"x_max":344,"o":"m 344 0 l 17 0 l 17 1154 l 344 1154 l 344 0 m 344 1175 l 304 1175 l 17 1507 l 142 1507 l 344 1175 z "},"Í":{"ha":361,"x_min":17,"x_max":344,"o":"m 344 0 l 17 0 l 17 1154 l 344 1154 l 344 0 m 344 1508 l 57 1176 l 17 1176 l 219 1508 l 344 1508 z "},"Î":{"ha":361,"x_min":-124,"x_max":486,"o":"m 344 0 l 17 0 l 17 1154 l 344 1154 l 344 0 m 486 1172 l 442 1172 l 182 1392 l -79 1172 l -124 1172 l 136 1493 l 226 1493 l 486 1172 z "},"Ï":{"ha":361,"x_min":-32,"x_max":394,"o":"m 344 0 l 17 0 l 17 1154 l 344 1154 l 344 0 m 367 1341 q 381 1327 367 1341 q 394 1274 394 1313 q 366 1207 394 1235 q 299 1179 338 1179 q 233 1207 260 1179 q 207 1274 207 1235 q 235 1342 207 1314 q 303 1369 263 1369 q 367 1341 340 1369 m 156 1274 q 128 1206 156 1233 q 61 1179 100 1179 q -5 1207 22 1179 q -32 1274 -32 1235 q -6 1342 -32 1314 q 61 1369 21 1369 q 128 1341 100 1369 q 156 1274 156 1313 z "},"Ð":{"ha":1153,"x_min":17,"x_max":1136,"o":"m 1136 576 q 968 169 1136 338 q 561 0 800 0 l 142 0 l 142 326 l 17 326 l 17 438 l 142 438 l 142 1151 l 561 1151 q 969 984 801 1151 q 1136 576 1136 817 m 1025 576 q 890 906 1025 769 q 561 1042 754 1042 l 496 1042 l 496 438 l 629 438 l 629 326 l 496 326 l 496 114 l 561 114 q 889 249 753 114 q 1025 576 1025 385 z "},"Ñ":{"ha":1206,"x_min":17,"x_max":1189,"o":"m 1189 0 l 863 0 l 343 926 l 343 0 l 17 0 l 17 1154 l 344 1154 l 863 228 l 863 1154 l 1189 1154 l 1189 0 m 901 1369 l 901 1360 q 850 1235 901 1285 q 724 1185 799 1185 q 668 1193 694 1185 l 458 1261 q 428 1267 439 1267 q 363 1240 393 1267 q 333 1179 333 1214 l 303 1179 q 352 1315 303 1261 q 482 1368 401 1368 q 536 1360 508 1368 l 749 1292 q 778 1288 764 1288 q 842 1311 814 1288 q 871 1369 869 1335 l 901 1369 z "},"Ò":{"ha":1185,"x_min":17,"x_max":1168,"o":"m 1168 576 q 1000 169 1168 338 q 593 0 832 0 q 303 77 436 0 q 94 287 171 154 q 17 576 17 419 q 185 985 17 817 q 593 1154 353 1154 q 1001 985 833 1154 q 1168 576 1168 817 m 922 249 q 990 316 922 249 q 1058 576 1058 383 q 922 906 1058 769 q 593 1042 786 1042 q 264 906 400 1042 q 128 576 128 769 q 264 249 128 383 q 593 114 400 114 q 922 249 786 114 m 657 1175 l 617 1175 l 329 1507 l 454 1507 l 657 1175 z "},"Ó":{"ha":1185,"x_min":17,"x_max":1168,"o":"m 1168 576 q 1000 169 1168 338 q 593 0 832 0 q 303 77 436 0 q 94 287 171 154 q 17 576 17 419 q 185 985 17 817 q 593 1154 353 1154 q 1001 985 833 1154 q 1168 576 1168 817 m 922 249 q 990 316 922 249 q 1058 576 1058 383 q 922 906 1058 769 q 593 1042 786 1042 q 264 906 400 1042 q 128 576 128 769 q 264 249 128 383 q 593 114 400 114 q 922 249 786 114 m 803 1508 l 515 1176 l 475 1176 l 678 1508 l 803 1508 z "},"Ô":{"ha":1185,"x_min":17,"x_max":1168,"o":"m 1168 576 q 1000 169 1168 338 q 593 0 832 0 q 303 77 436 0 q 94 287 171 154 q 17 576 17 419 q 185 985 17 817 q 593 1154 353 1154 q 1001 985 833 1154 q 1168 576 1168 817 m 922 249 q 990 316 922 249 q 1058 576 1058 383 q 922 906 1058 769 q 593 1042 786 1042 q 264 906 400 1042 q 128 576 128 769 q 264 249 128 383 q 593 114 400 114 q 922 249 786 114 m 897 1172 l 853 1172 l 593 1392 l 332 1172 l 288 1172 l 547 1493 l 638 1493 l 897 1172 z "},"Õ":{"ha":1185,"x_min":17,"x_max":1168,"o":"m 1168 576 q 1000 169 1168 338 q 593 0 832 0 q 303 77 436 0 q 94 287 171 154 q 17 576 17 419 q 185 985 17 817 q 593 1154 353 1154 q 1001 985 833 1154 q 1168 576 1168 817 m 922 249 q 990 316 922 249 q 1058 576 1058 383 q 922 906 1058 769 q 593 1042 786 1042 q 264 906 400 1042 q 128 576 128 769 q 264 249 128 383 q 593 114 400 114 q 922 249 786 114 m 892 1369 l 892 1360 q 840 1235 892 1285 q 714 1185 789 1185 q 658 1193 686 1185 l 449 1261 q 418 1267 429 1267 q 353 1240 383 1267 q 324 1179 324 1214 l 293 1179 q 342 1315 293 1261 q 472 1368 392 1368 q 526 1360 500 1368 l 739 1292 q 768 1288 753 1288 q 832 1311 804 1288 q 861 1369 860 1335 l 892 1369 z "},"Ö":{"ha":1185,"x_min":17,"x_max":1168,"o":"m 1168 576 q 1000 169 1168 338 q 593 0 832 0 q 303 77 436 0 q 94 287 171 154 q 17 576 17 419 q 185 985 17 817 q 593 1154 353 1154 q 1001 985 833 1154 q 1168 576 1168 817 m 922 249 q 990 316 922 249 q 1058 576 1058 383 q 922 906 1058 769 q 593 1042 786 1042 q 264 906 400 1042 q 128 576 128 769 q 264 249 128 383 q 593 114 400 114 q 922 249 786 114 m 778 1341 q 792 1327 778 1341 q 806 1274 806 1313 q 777 1207 806 1235 q 710 1179 749 1179 q 644 1207 671 1179 q 618 1274 618 1235 q 646 1342 618 1314 q 714 1369 674 1369 q 778 1341 751 1369 m 567 1274 q 539 1206 567 1233 q 472 1179 511 1179 q 406 1207 433 1179 q 379 1274 379 1235 q 406 1342 379 1314 q 472 1369 432 1369 q 539 1341 511 1369 q 567 1274 567 1313 z "},"×":{"ha":600,"x_min":17,"x_max":583,"o":"m 482 293 l 300 474 l 118 293 l 17 394 l 197 576 l 17 758 l 118 860 l 300 679 l 482 860 l 583 758 l 403 576 l 583 394 l 482 293 z "},"Ø":{"ha":1290,"x_min":17,"x_max":1274,"o":"m 1274 1151 l 1082 953 q 1221 576 1221 789 q 1052 168 1221 336 q 644 0 883 0 q 289 124 449 0 l 172 0 l 17 0 l 208 201 q 69 576 69 365 q 238 984 69 817 q 644 1151 406 1151 q 999 1029 850 1151 l 1118 1151 l 1274 1151 m 1110 576 q 1003 872 1110 742 l 367 206 q 644 114 488 114 q 974 249 838 114 q 1110 576 1110 383 m 922 949 q 644 1042 797 1042 q 316 906 451 1042 q 181 576 181 769 q 286 282 181 413 l 922 949 z "},"Ù":{"ha":1251,"x_min":17,"x_max":1235,"o":"m 1235 582 q 1056 151 1235 331 q 626 -28 878 -28 q 196 151 375 -28 q 17 582 17 331 l 17 1154 l 128 1154 l 128 582 q 274 231 128 379 q 626 85 419 85 q 976 232 832 85 q 1124 582 1124 376 l 1124 1154 l 1235 1154 l 1235 582 m 789 1175 l 749 1175 l 461 1507 l 586 1507 l 789 1175 z "},"Ú":{"ha":1251,"x_min":17,"x_max":1235,"o":"m 1235 582 q 1056 151 1235 331 q 626 -28 878 -28 q 196 151 375 -28 q 17 582 17 331 l 17 1154 l 128 1154 l 128 582 q 274 231 128 379 q 626 85 419 85 q 976 232 832 85 q 1124 582 1124 376 l 1124 1154 l 1235 1154 l 1235 582 m 789 1508 l 501 1176 l 461 1176 l 664 1508 l 789 1508 z "},"Û":{"ha":1251,"x_min":17,"x_max":1235,"o":"m 1235 582 q 1056 151 1235 331 q 626 -28 878 -28 q 196 151 375 -28 q 17 582 17 331 l 17 1154 l 128 1154 l 128 582 q 274 231 128 379 q 626 85 419 85 q 976 232 832 85 q 1124 582 1124 376 l 1124 1154 l 1235 1154 l 1235 582 m 931 1172 l 886 1172 l 626 1392 l 365 1172 l 321 1172 l 581 1493 l 671 1493 l 931 1172 z "},"Ü":{"ha":1251,"x_min":17,"x_max":1235,"o":"m 1235 582 q 1056 151 1235 331 q 626 -28 878 -28 q 196 151 375 -28 q 17 582 17 331 l 17 1154 l 128 1154 l 128 582 q 274 231 128 379 q 626 85 419 85 q 976 232 832 85 q 1124 582 1124 376 l 1124 1154 l 1235 1154 l 1235 582 m 812 1341 q 825 1327 812 1341 q 839 1274 839 1313 q 810 1207 839 1235 q 743 1179 782 1179 q 678 1207 704 1179 q 651 1274 651 1235 q 679 1342 651 1314 q 747 1369 707 1369 q 812 1341 785 1369 m 600 1274 q 572 1206 600 1233 q 506 1179 544 1179 q 440 1207 467 1179 q 413 1274 413 1235 q 439 1342 413 1314 q 506 1369 465 1369 q 572 1341 544 1369 q 600 1274 600 1313 z "},"Ý":{"ha":939,"x_min":17,"x_max":922,"o":"m 922 1154 l 632 514 l 632 0 l 306 0 l 306 514 l 17 1154 l 139 1154 l 421 532 l 517 532 l 799 1154 l 922 1154 m 633 1508 l 346 1176 l 306 1176 l 508 1508 l 633 1508 z "},"Þ":{"ha":714,"x_min":17,"x_max":697,"o":"m 634 731 q 666 699 634 731 q 697 576 697 667 q 633 422 697 486 q 481 358 569 358 l 343 358 l 343 0 l 17 0 l 17 1151 l 343 1151 l 343 796 l 481 796 q 634 731 571 796 m 588 576 q 556 652 588 621 q 481 683 525 683 l 343 683 l 343 469 l 481 469 q 556 501 525 469 q 588 576 588 533 z "},"ß":{"ha":1022,"x_min":14,"x_max":1008,"o":"m 1008 885 l 908 885 l 908 293 q 815 69 908 161 q 590 -24 722 -24 q 414 32 497 -24 q 239 -24 333 -24 q 14 71 108 -24 l 82 138 q 239 72 146 72 q 276 75 264 72 l 276 801 q 328 928 276 876 q 456 979 381 979 l 657 979 l 657 894 q 808 979 707 979 l 1008 979 l 1008 885 m 649 885 l 557 885 l 557 293 q 489 99 557 183 q 590 72 538 72 q 628 75 617 72 l 628 801 q 649 885 628 838 z "},"à":{"ha":1082,"x_min":14,"x_max":1067,"o":"m 1067 0 l 781 0 l 722 122 l 178 122 l 119 0 l 14 0 l 488 981 l 604 981 l 1067 0 m 678 217 l 453 689 l 224 217 l 678 217 m 619 1000 l 579 1000 l 292 1332 l 417 1332 l 619 1000 z "},"á":{"ha":1082,"x_min":14,"x_max":1067,"o":"m 1067 0 l 781 0 l 722 122 l 178 122 l 119 0 l 14 0 l 488 981 l 604 981 l 1067 0 m 678 217 l 453 689 l 224 217 l 678 217 m 763 1333 l 475 1001 l 435 1001 l 638 1333 l 763 1333 z "},"â":{"ha":1082,"x_min":14,"x_max":1067,"o":"m 1067 0 l 781 0 l 722 122 l 178 122 l 119 0 l 14 0 l 488 981 l 604 981 l 1067 0 m 678 217 l 453 689 l 224 217 l 678 217 m 846 997 l 801 997 l 542 1217 l 281 997 l 236 997 l 496 1318 l 586 1318 l 846 997 z "},"ã":{"ha":1082,"x_min":14,"x_max":1067,"o":"m 1067 0 l 781 0 l 722 122 l 178 122 l 119 0 l 14 0 l 488 981 l 604 981 l 1067 0 m 678 217 l 453 689 l 224 217 l 678 217 m 840 1194 l 840 1185 q 789 1060 840 1110 q 663 1010 738 1010 q 607 1018 633 1010 l 397 1086 q 367 1092 378 1092 q 302 1065 332 1092 q 272 1004 272 1039 l 242 1004 q 291 1140 242 1086 q 421 1193 340 1193 q 475 1185 447 1193 l 688 1117 q 717 1113 703 1113 q 781 1136 753 1113 q 810 1194 808 1160 l 840 1194 z "},"ä":{"ha":1082,"x_min":14,"x_max":1067,"o":"m 1067 0 l 781 0 l 722 122 l 178 122 l 119 0 l 14 0 l 488 981 l 604 981 l 1067 0 m 678 217 l 453 689 l 224 217 l 678 217 m 727 1166 q 741 1152 727 1166 q 754 1099 754 1138 q 726 1032 754 1060 q 658 1004 697 1004 q 593 1032 619 1004 q 567 1099 567 1060 q 594 1167 567 1139 q 663 1194 622 1194 q 727 1166 700 1194 m 515 1099 q 488 1031 515 1058 q 421 1004 461 1004 q 355 1032 382 1004 q 328 1099 328 1060 q 354 1167 328 1139 q 421 1194 381 1194 q 488 1166 460 1194 q 515 1099 515 1138 z "},"å":{"ha":1082,"x_min":14,"x_max":1067,"o":"m 1067 0 l 781 0 l 722 122 l 178 122 l 119 0 l 14 0 l 488 981 l 604 981 l 1067 0 m 678 217 l 453 689 l 224 217 l 678 217 m 739 1200 q 681 1060 739 1118 q 542 1003 624 1003 q 400 1060 458 1003 q 342 1200 342 1117 q 398 1342 342 1283 q 538 1400 454 1400 q 681 1342 622 1400 q 739 1200 739 1285 m 667 1200 q 631 1289 667 1253 q 542 1325 594 1325 q 453 1289 489 1325 q 417 1200 417 1253 q 453 1112 417 1147 q 542 1076 489 1076 q 631 1113 594 1076 q 667 1200 667 1149 z "},"æ":{"ha":1281,"x_min":14,"x_max":1267,"o":"m 1267 0 l 633 0 l 633 278 l 271 278 l 122 0 l 14 0 l 539 979 l 1256 979 l 1256 885 l 913 885 l 913 372 l 1194 372 l 1194 278 l 913 278 l 913 97 l 1267 97 l 1267 0 m 633 372 l 633 885 l 596 885 l 322 372 l 633 372 z "},"ç":{"ha":753,"x_min":14,"x_max":739,"o":"m 739 0 l 503 0 q 157 144 300 0 q 14 490 14 288 q 156 838 14 694 q 503 981 299 981 l 739 981 l 739 885 l 503 885 q 223 769 339 885 q 107 490 107 654 q 224 213 107 328 q 503 97 340 97 l 739 97 l 739 0 m 600 -176 q 545 -262 600 -232 q 431 -293 490 -293 q 214 -243 306 -293 l 214 -204 q 297 -226 246 -226 q 378 -207 339 -226 q 418 -150 418 -187 q 364 -87 418 -106 q 440 19 378 -71 l 510 19 l 453 -60 q 555 -96 510 -67 q 600 -176 600 -125 z "},"è":{"ha":661,"x_min":14,"x_max":647,"o":"m 647 885 l 292 885 l 292 704 l 575 704 l 575 608 l 292 608 l 292 97 l 642 97 l 642 0 l 14 0 l 14 981 l 647 981 l 647 885 m 494 1000 l 454 1000 l 167 1332 l 292 1332 l 494 1000 z "},"é":{"ha":661,"x_min":14,"x_max":647,"o":"m 647 885 l 292 885 l 292 704 l 575 704 l 575 608 l 292 608 l 292 97 l 642 97 l 642 0 l 14 0 l 14 981 l 647 981 l 647 885 m 494 1333 l 207 1001 l 167 1001 l 369 1333 l 494 1333 z "},"ê":{"ha":661,"x_min":14,"x_max":647,"o":"m 647 885 l 292 885 l 292 704 l 575 704 l 575 608 l 292 608 l 292 97 l 642 97 l 642 0 l 14 0 l 14 981 l 647 981 l 647 885 m 635 997 l 590 997 l 331 1217 l 69 997 l 25 997 l 285 1318 l 375 1318 l 635 997 z "},"ë":{"ha":661,"x_min":14,"x_max":647,"o":"m 647 885 l 292 885 l 292 704 l 575 704 l 575 608 l 292 608 l 292 97 l 642 97 l 642 0 l 14 0 l 14 981 l 647 981 l 647 885 m 516 1166 q 530 1152 516 1166 q 543 1099 543 1138 q 515 1032 543 1060 q 447 1004 486 1004 q 382 1032 408 1004 q 356 1099 356 1060 q 383 1167 356 1139 q 451 1194 411 1194 q 516 1166 489 1194 m 304 1099 q 277 1031 304 1058 q 210 1004 250 1004 q 144 1032 171 1004 q 117 1099 117 1060 q 143 1167 117 1139 q 210 1194 169 1194 q 276 1166 249 1194 q 304 1099 304 1138 z "},"ì":{"ha":361,"x_min":17,"x_max":344,"o":"m 344 0 l 17 0 l 17 979 l 344 979 l 344 0 m 344 1000 l 304 1000 l 17 1332 l 142 1332 l 344 1000 z "},"í":{"ha":361,"x_min":17,"x_max":344,"o":"m 344 0 l 17 0 l 17 979 l 344 979 l 344 0 m 344 1333 l 57 1001 l 17 1001 l 219 1333 l 344 1333 z "},"î":{"ha":361,"x_min":-124,"x_max":486,"o":"m 344 0 l 17 0 l 17 979 l 344 979 l 344 0 m 486 997 l 442 997 l 182 1217 l -79 997 l -124 997 l 136 1318 l 226 1318 l 486 997 z "},"ï":{"ha":361,"x_min":-32,"x_max":394,"o":"m 344 0 l 17 0 l 17 979 l 344 979 l 344 0 m 367 1166 q 381 1152 367 1166 q 394 1099 394 1138 q 366 1032 394 1060 q 299 1004 338 1004 q 233 1032 260 1004 q 207 1099 207 1060 q 235 1167 207 1139 q 303 1194 263 1194 q 367 1166 340 1194 m 156 1099 q 128 1031 156 1058 q 61 1004 100 1004 q -5 1032 22 1004 q -32 1099 -32 1060 q -6 1167 -32 1139 q 61 1194 21 1194 q 128 1166 100 1194 q 156 1099 156 1138 z "},"ð":{"ha":979,"x_min":14,"x_max":965,"o":"m 965 490 q 822 144 965 288 q 476 0 679 0 l 121 0 l 121 278 l 14 278 l 14 372 l 121 372 l 121 979 l 476 979 q 824 837 682 979 q 965 490 965 694 m 756 212 q 813 269 756 212 q 871 490 871 326 q 756 769 871 654 q 476 885 640 885 l 421 885 l 421 372 l 535 372 l 535 278 l 421 278 l 421 97 l 476 97 q 756 212 640 97 z "},"ñ":{"ha":1025,"x_min":14,"x_max":1011,"o":"m 1011 0 l 733 0 l 292 788 l 292 0 l 14 0 l 14 981 l 293 981 l 733 193 l 733 981 l 1011 981 l 1011 0 m 811 1194 l 811 1185 q 760 1060 811 1110 q 633 1010 708 1010 q 578 1018 604 1010 l 368 1086 q 338 1092 349 1092 q 273 1065 303 1092 q 243 1004 243 1039 l 213 1004 q 262 1140 213 1086 q 392 1193 311 1193 q 446 1185 419 1193 l 658 1117 q 688 1113 672 1113 q 751 1136 724 1113 q 781 1194 779 1160 l 811 1194 z "},"ò":{"ha":1007,"x_min":14,"x_max":993,"o":"m 993 490 q 850 144 993 288 q 504 0 707 0 q 157 143 300 0 q 14 490 14 286 q 157 838 14 694 q 504 981 300 981 q 851 838 708 981 q 993 490 993 694 m 784 212 q 842 269 784 212 q 900 490 900 326 q 784 769 900 654 q 504 885 668 885 q 224 769 340 885 q 108 490 108 654 q 224 212 108 326 q 504 97 340 97 q 784 212 668 97 m 592 1000 l 551 1000 l 264 1332 l 389 1332 l 592 1000 z "},"ó":{"ha":1007,"x_min":14,"x_max":993,"o":"m 993 490 q 850 144 993 288 q 504 0 707 0 q 157 143 300 0 q 14 490 14 286 q 157 838 14 694 q 504 981 300 981 q 851 838 708 981 q 993 490 993 694 m 784 212 q 842 269 784 212 q 900 490 900 326 q 784 769 900 654 q 504 885 668 885 q 224 769 340 885 q 108 490 108 654 q 224 212 108 326 q 504 97 340 97 q 784 212 668 97 m 761 1333 l 474 1001 l 433 1001 l 636 1333 l 761 1333 z "},"ô":{"ha":1007,"x_min":14,"x_max":993,"o":"m 993 490 q 850 144 993 288 q 504 0 707 0 q 157 143 300 0 q 14 490 14 286 q 157 838 14 694 q 504 981 300 981 q 851 838 708 981 q 993 490 993 694 m 784 212 q 842 269 784 212 q 900 490 900 326 q 784 769 900 654 q 504 885 668 885 q 224 769 340 885 q 108 490 108 654 q 224 212 108 326 q 504 97 340 97 q 784 212 668 97 m 808 997 l 764 997 l 504 1217 l 243 997 l 199 997 l 458 1318 l 549 1318 l 808 997 z "},"õ":{"ha":1007,"x_min":14,"x_max":993,"o":"m 993 490 q 850 144 993 288 q 504 0 707 0 q 157 143 300 0 q 14 490 14 286 q 157 838 14 694 q 504 981 300 981 q 851 838 708 981 q 993 490 993 694 m 784 212 q 842 269 784 212 q 900 490 900 326 q 784 769 900 654 q 504 885 668 885 q 224 769 340 885 q 108 490 108 654 q 224 212 108 326 q 504 97 340 97 q 784 212 668 97 m 803 1194 l 803 1185 q 751 1060 803 1110 q 625 1010 700 1010 q 569 1018 597 1010 l 360 1086 q 329 1092 340 1092 q 265 1065 294 1092 q 235 1004 235 1039 l 204 1004 q 253 1140 204 1086 q 383 1193 303 1193 q 438 1185 411 1193 l 650 1117 q 679 1113 664 1113 q 743 1136 715 1113 q 772 1194 771 1160 l 803 1194 z "},"ö":{"ha":1007,"x_min":14,"x_max":993,"o":"m 993 490 q 850 144 993 288 q 504 0 707 0 q 157 143 300 0 q 14 490 14 286 q 157 838 14 694 q 504 981 300 981 q 851 838 708 981 q 993 490 993 694 m 784 212 q 842 269 784 212 q 900 490 900 326 q 784 769 900 654 q 504 885 668 885 q 224 769 340 885 q 108 490 108 654 q 224 212 108 326 q 504 97 340 97 q 784 212 668 97 m 690 1166 q 703 1152 690 1166 q 717 1099 717 1138 q 688 1032 717 1060 q 621 1004 660 1004 q 556 1032 582 1004 q 529 1099 529 1060 q 557 1167 529 1139 q 625 1194 585 1194 q 690 1166 663 1194 m 478 1099 q 450 1031 478 1058 q 383 1004 422 1004 q 317 1032 344 1004 q 290 1099 290 1060 q 317 1167 290 1139 q 383 1194 343 1194 q 450 1166 422 1194 q 478 1099 478 1138 z "},"÷":{"ha":692,"x_min":17,"x_max":675,"o":"m 406 752 q 418 740 406 752 q 431 692 431 728 q 406 631 431 656 q 346 607 381 607 q 286 631 311 607 q 261 692 261 656 q 286 752 261 728 q 346 776 311 776 q 406 752 381 776 m 406 342 q 418 329 406 342 q 431 282 431 317 q 406 222 431 247 q 346 197 381 197 q 286 222 311 197 q 261 282 261 247 q 286 342 261 317 q 346 367 311 367 q 406 342 381 367 m 675 414 l 17 414 l 17 558 l 675 558 l 675 414 z "},"ø":{"ha":1097,"x_min":14,"x_max":1082,"o":"m 1082 979 l 919 810 q 1038 490 1038 671 q 894 143 1038 286 q 547 0 751 0 q 246 106 381 0 l 146 0 l 14 0 l 176 171 q 58 490 58 313 q 201 836 58 693 q 547 979 344 979 q 849 875 722 979 l 950 979 l 1082 979 m 943 490 q 853 742 943 631 l 311 175 q 547 97 415 97 q 828 212 713 97 q 943 490 943 326 m 783 807 q 547 885 678 885 q 268 769 383 885 q 153 490 153 654 q 243 240 153 351 l 783 807 z "},"ù":{"ha":1064,"x_min":14,"x_max":1050,"o":"m 1050 494 q 898 128 1050 281 q 532 -24 746 -24 q 166 128 318 -24 q 14 494 14 281 l 14 981 l 108 981 l 108 494 q 232 196 108 324 q 532 72 358 72 q 831 197 708 72 q 956 494 956 322 l 956 981 l 1050 981 l 1050 494 m 661 1000 l 621 1000 l 333 1332 l 458 1332 l 661 1000 z "},"ú":{"ha":1064,"x_min":14,"x_max":1050,"o":"m 1050 494 q 898 128 1050 281 q 532 -24 746 -24 q 166 128 318 -24 q 14 494 14 281 l 14 981 l 108 981 l 108 494 q 232 196 108 324 q 532 72 358 72 q 831 197 708 72 q 956 494 956 322 l 956 981 l 1050 981 l 1050 494 m 696 1333 l 408 1001 l 368 1001 l 571 1333 l 696 1333 z "},"û":{"ha":1064,"x_min":14,"x_max":1050,"o":"m 1050 494 q 898 128 1050 281 q 532 -24 746 -24 q 166 128 318 -24 q 14 494 14 281 l 14 981 l 108 981 l 108 494 q 232 196 108 324 q 532 72 358 72 q 831 197 708 72 q 956 494 956 322 l 956 981 l 1050 981 l 1050 494 m 836 997 l 792 997 l 532 1217 l 271 997 l 226 997 l 486 1318 l 576 1318 l 836 997 z "},"ü":{"ha":1064,"x_min":14,"x_max":1050,"o":"m 1050 494 q 898 128 1050 281 q 532 -24 746 -24 q 166 128 318 -24 q 14 494 14 281 l 14 981 l 108 981 l 108 494 q 232 196 108 324 q 532 72 358 72 q 831 197 708 72 q 956 494 956 322 l 956 981 l 1050 981 l 1050 494 m 717 1166 q 731 1152 717 1166 q 744 1099 744 1138 q 716 1032 744 1060 q 649 1004 688 1004 q 583 1032 610 1004 q 557 1099 557 1060 q 585 1167 557 1139 q 653 1194 613 1194 q 717 1166 690 1194 m 506 1099 q 478 1031 506 1058 q 411 1004 450 1004 q 345 1032 372 1004 q 318 1099 318 1060 q 344 1167 318 1139 q 411 1194 371 1194 q 478 1166 450 1194 q 506 1099 506 1138 z "},"ý":{"ha":799,"x_min":14,"x_max":783,"o":"m 783 981 l 538 436 l 538 0 l 260 0 l 260 436 l 14 981 l 118 981 l 358 453 l 439 453 l 679 981 l 783 981 m 563 1333 l 275 1001 l 235 1001 l 438 1333 l 563 1333 z "},"þ":{"ha":607,"x_min":14,"x_max":593,"o":"m 539 622 q 566 594 539 622 q 593 490 593 567 q 539 359 593 414 q 408 304 485 304 l 292 304 l 292 0 l 14 0 l 14 979 l 292 979 l 292 676 l 408 676 q 539 622 485 676 m 473 426 q 486 439 473 426 q 500 490 500 453 q 474 554 500 528 q 408 581 447 581 l 292 581 l 292 399 l 408 399 q 473 426 446 399 z "},"ÿ":{"ha":799,"x_min":14,"x_max":783,"o":"m 783 981 l 538 436 l 538 0 l 260 0 l 260 436 l 14 981 l 118 981 l 358 453 l 439 453 l 679 981 l 783 981 m 585 1166 q 599 1152 585 1166 q 613 1099 613 1138 q 584 1032 613 1060 q 517 1004 556 1004 q 451 1032 478 1004 q 425 1099 425 1060 q 453 1167 425 1139 q 521 1194 481 1194 q 585 1166 558 1194 m 374 1099 q 347 1031 374 1058 q 279 1004 319 1004 q 213 1032 240 1004 q 186 1099 186 1060 q 213 1167 186 1139 q 279 1194 239 1194 q 346 1166 318 1194 q 374 1099 374 1138 z "},"ı":{"ha":361,"x_min":17,"x_max":344,"o":"m 344 0 l 17 0 l 17 979 l 344 979 l 344 0 z "},"Œ":{"ha":1601,"x_min":17,"x_max":1585,"o":"m 1585 1042 l 1167 1042 l 1167 828 l 1501 828 l 1501 715 l 1167 715 l 1167 114 l 1579 114 l 1579 0 l 840 0 l 840 57 q 594 0 719 0 q 185 169 354 0 q 17 576 17 338 q 185 984 17 817 q 594 1151 354 1151 q 840 1097 725 1151 l 840 1151 l 1585 1151 l 1585 1042 m 840 183 l 840 969 q 594 1042 731 1042 q 266 906 401 1042 q 131 576 131 769 q 266 249 131 383 q 594 114 401 114 q 840 183 731 114 z "},"œ":{"ha":1361,"x_min":14,"x_max":1347,"o":"m 1347 885 l 992 885 l 992 704 l 1276 704 l 1276 608 l 992 608 l 992 97 l 1342 97 l 1342 0 l 714 0 l 714 49 q 506 0 610 0 q 158 143 301 0 q 14 490 14 286 q 157 837 14 694 q 506 979 300 979 q 714 932 618 979 l 714 979 l 1347 979 l 1347 885 m 714 156 l 714 824 q 506 885 622 885 q 226 769 342 885 q 111 490 111 654 q 226 212 111 326 q 506 97 342 97 q 714 156 621 97 z "},"Š":{"ha":836,"x_min":17,"x_max":819,"o":"m 819 885 l 358 0 l 17 0 l 419 772 l 151 772 l 350 1154 l 690 1154 l 550 885 l 819 885 m 722 1500 l 463 1179 l 372 1179 l 113 1500 l 157 1500 l 418 1281 l 678 1500 l 722 1500 z "},"š":{"ha":718,"x_min":14,"x_max":746,"o":"m 704 885 l 557 885 l 557 293 q 463 69 557 161 q 239 -24 369 -24 q 14 71 108 -24 l 82 138 q 239 72 146 72 q 276 75 264 72 l 276 801 q 328 928 276 876 q 456 979 381 979 l 704 979 l 704 885 m 746 1325 l 486 1004 l 396 1004 l 136 1325 l 181 1325 l 442 1106 l 701 1325 l 746 1325 z "},"Ÿ":{"ha":939,"x_min":17,"x_max":922,"o":"m 922 1154 l 632 514 l 632 0 l 306 0 l 306 514 l 17 1154 l 139 1154 l 421 532 l 517 532 l 799 1154 l 922 1154 m 655 1341 q 668 1327 655 1341 q 682 1274 682 1313 q 653 1207 682 1235 q 586 1179 625 1179 q 521 1207 547 1179 q 494 1274 494 1235 q 522 1342 494 1314 q 590 1369 550 1369 q 655 1341 628 1369 m 443 1274 q 416 1206 443 1233 q 349 1179 389 1179 q 283 1207 310 1179 q 256 1274 256 1235 q 282 1342 256 1314 q 349 1369 308 1369 q 415 1341 388 1369 q 443 1274 443 1313 z "},"Ž":{"ha":967,"x_min":17,"x_max":950,"o":"m 950 0 l 17 0 l 533 1042 l 199 1042 l 199 1154 l 933 1154 l 418 114 l 950 114 l 950 0 m 788 1500 l 528 1179 l 438 1179 l 178 1500 l 222 1500 l 483 1281 l 743 1500 l 788 1500 z "},"ž":{"ha":822,"x_min":14,"x_max":807,"o":"m 807 0 l 14 0 l 453 885 l 169 885 l 169 981 l 793 981 l 356 97 l 807 97 l 807 0 m 758 1325 l 499 1004 l 408 1004 l 149 1325 l 193 1325 l 454 1106 l 714 1325 l 758 1325 z "},"ƒ":{"ha":1244,"x_min":17,"x_max":1228,"o":"m 681 631 l 710 631 q 708 608 710 615 q 721 609 713 608 q 733 610 729 610 q 802 594 771 610 q 838 547 833 578 q 917 561 872 561 q 1008 535 971 561 q 1046 461 1046 510 q 1031 415 1046 440 q 1017 408 1024 408 q 1001 422 1001 408 q 1006 433 1001 428 q 1015 461 1015 447 q 991 510 1015 490 q 932 529 967 529 q 819 496 864 529 q 774 431 774 463 q 838 383 774 383 q 883 390 860 383 q 889 392 885 392 q 906 375 906 392 q 853 288 900 324 q 749 253 807 253 q 622 307 668 253 q 497 253 576 253 q 392 288 440 253 q 340 375 346 324 q 356 392 340 392 q 360 390 358 392 q 408 383 388 383 q 475 431 475 383 q 428 496 475 463 q 311 529 381 529 q 254 510 278 529 q 231 461 231 490 q 240 433 231 447 q 244 422 244 428 q 228 408 244 408 q 214 415 221 408 q 200 461 200 439 q 237 535 200 510 q 328 561 274 561 q 408 547 374 561 q 444 594 413 578 q 510 610 475 610 q 523 609 514 610 q 536 608 532 608 q 535 635 535 617 q 543 703 535 678 q 561 731 550 731 q 579 703 572 731 q 586 664 585 682 l 557 631 l 586 631 q 583 588 586 600 q 610 540 610 569 q 564 479 610 499 q 518 440 518 456 q 551 401 518 414 q 622 389 585 389 q 694 401 661 389 q 726 440 726 414 q 681 479 726 460 q 635 540 635 499 q 663 588 635 571 q 658 635 658 608 q 665 703 658 675 q 685 731 675 731 q 703 703 693 731 q 708 664 708 681 l 681 631 m 796 574 q 736 590 772 590 q 676 574 700 590 q 654 540 654 558 q 676 506 654 521 q 736 489 703 489 q 796 506 769 489 q 818 540 818 521 q 796 574 818 558 m 568 574 q 510 590 547 590 q 450 574 472 590 q 428 540 428 560 q 450 506 428 519 q 510 489 476 489 q 568 506 544 489 q 590 540 590 519 q 568 574 590 560 m 729 389 q 622 357 690 357 q 517 389 554 357 q 408 353 469 353 q 376 356 399 353 q 424 302 390 321 q 497 283 458 283 q 608 342 575 283 q 622 349 615 349 q 636 342 632 349 q 749 283 669 283 q 821 303 786 283 q 868 356 856 322 q 838 353 849 353 q 729 389 776 353 m 504 821 q 315 653 315 779 q 317 631 315 646 q 319 607 319 617 q 303 590 319 590 q 289 604 290 590 q 285 653 285 629 q 361 840 285 761 q 281 944 294 878 l 281 950 q 296 964 281 964 q 311 950 310 964 q 365 875 322 903 q 458 847 408 847 q 547 872 506 847 q 601 940 588 897 q 617 950 604 950 q 631 940 631 950 q 687 872 646 897 q 775 847 728 847 q 868 875 825 847 q 922 950 911 903 q 938 964 924 964 q 951 950 951 964 l 951 944 q 879 846 939 883 q 960 653 960 763 q 956 604 960 629 q 940 590 951 590 q 925 610 925 590 q 929 653 929 632 q 765 818 929 786 q 617 900 656 836 q 504 821 579 839 m 1092 139 q 890 53 1008 53 q 758 19 832 19 l 740 19 q 622 -8 682 -8 q 504 19 564 -8 l 488 19 q 354 53 414 19 q 154 139 233 53 q 17 363 17 235 q 101 543 17 458 q 63 694 63 618 q 229 988 63 865 q 622 1107 393 1107 q 1017 988 853 1107 q 1182 694 1182 865 q 1143 543 1182 614 q 1228 363 1228 458 q 1092 139 1228 236 m 942 90 q 1068 161 1017 106 q 1119 292 1119 217 q 1081 408 1119 357 q 1076 418 1076 413 q 1092 433 1076 433 q 1104 426 1100 433 q 1150 292 1150 371 q 1140 224 1150 254 q 1197 363 1197 290 q 1114 528 1197 450 q 1108 539 1108 533 q 1111 546 1108 540 q 1151 694 1151 615 q 997 963 1151 853 q 622 1078 842 1078 q 247 963 403 1078 q 93 694 93 851 q 135 546 93 618 l 135 540 q 132 528 135 531 q 47 363 47 450 q 104 224 47 290 q 94 292 94 263 q 140 426 94 368 q 154 433 146 433 q 168 418 168 433 q 165 408 168 411 q 125 292 125 357 q 176 161 125 217 q 303 90 228 106 q 226 257 226 160 q 278 399 226 333 q 290 406 285 406 q 306 390 306 406 q 301 379 306 386 q 257 257 257 324 q 314 122 257 178 q 451 53 371 65 q 363 231 363 124 q 378 247 363 247 q 393 231 393 247 q 463 83 393 142 q 622 24 532 24 q 782 83 713 24 q 851 231 851 142 q 868 247 851 247 q 883 231 883 247 q 794 53 883 124 q 931 122 874 65 q 988 257 988 178 q 943 379 988 326 q 939 390 939 386 q 954 406 939 406 q 967 399 960 406 q 1018 257 1018 336 q 942 90 1018 160 z "},"ˆ":{"ha":643,"x_min":17,"x_max":626,"o":"m 626 997 l 582 997 l 322 1217 l 61 997 l 17 997 l 276 1318 l 367 1318 l 626 997 z "},"ˇ":{"ha":643,"x_min":17,"x_max":626,"o":"m 626 1325 l 367 1004 l 276 1004 l 17 1325 l 61 1325 l 322 1106 l 582 1325 l 626 1325 z "},"˚":{"ha":431,"x_min":17,"x_max":414,"o":"m 414 1200 q 356 1060 414 1118 q 217 1003 299 1003 q 75 1060 133 1003 q 17 1200 17 1117 q 73 1342 17 1283 q 213 1400 129 1400 q 356 1342 297 1400 q 414 1200 414 1285 m 342 1200 q 306 1289 342 1253 q 217 1325 269 1325 q 128 1289 164 1325 q 92 1200 92 1253 q 128 1112 92 1147 q 217 1076 164 1076 q 306 1113 269 1076 q 342 1200 342 1149 z "},"˜":{"ha":632,"x_min":17,"x_max":615,"o":"m 615 1194 l 615 1185 q 564 1060 615 1110 q 438 1010 513 1010 q 382 1018 408 1010 l 172 1086 q 142 1092 153 1092 q 77 1065 107 1092 q 47 1004 47 1039 l 17 1004 q 66 1140 17 1086 q 196 1193 115 1193 q 250 1185 222 1193 l 463 1117 q 492 1113 478 1113 q 556 1136 528 1113 q 585 1194 583 1160 l 615 1194 z "},"–":{"ha":692,"x_min":17,"x_max":675,"o":"m 675 504 l 17 504 l 17 649 l 675 649 l 675 504 z "},"—":{"ha":1386,"x_min":17,"x_max":1369,"o":"m 1369 504 l 17 504 l 17 649 l 1369 649 l 1369 504 z "},"‘":{"ha":357,"x_min":17,"x_max":340,"o":"m 340 1151 l 286 768 l 71 768 l 17 1151 l 340 1151 z "},"’":{"ha":357,"x_min":17,"x_max":340,"o":"m 340 1151 l 286 768 l 71 768 l 17 1151 l 340 1151 z "},"‚":{"ha":357,"x_min":17,"x_max":340,"o":"m 340 217 l 286 -167 l 71 -167 l 17 217 l 340 217 z "},"“":{"ha":504,"x_min":17,"x_max":488,"o":"m 488 1179 l 433 796 l 267 796 l 267 1179 l 488 1179 m 238 796 l 71 796 l 17 1179 l 238 1179 l 238 796 z "},"”":{"ha":504,"x_min":17,"x_max":488,"o":"m 488 1179 l 433 796 l 267 796 l 267 1179 l 488 1179 m 238 796 l 71 796 l 17 1179 l 238 1179 l 238 796 z "},"„":{"ha":504,"x_min":17,"x_max":488,"o":"m 488 217 l 433 -167 l 267 -167 l 267 217 l 488 217 m 238 -167 l 71 -167 l 17 217 l 238 217 l 238 -167 z "},"†":{"ha":997,"x_min":33,"x_max":964,"o":"m 646 81 q 499 0 558 64 q 351 81 439 64 q 471 799 467 439 q 189 669 308 783 q 33 826 140 776 q 189 983 140 876 q 469 854 308 868 q 329 1172 457 1035 q 499 1340 444 1224 q 668 1172 553 1224 q 528 854 540 1038 q 808 983 689 868 q 964 826 858 875 q 808 669 858 778 q 526 799 689 783 q 646 81 531 439 z "},"‡":{"ha":954,"x_min":33,"x_max":921,"o":"m 618 694 q 538 610 561 647 q 503 510 514 574 q 772 631 660 525 q 921 483 819 531 q 772 336 817 438 q 504 458 660 444 q 639 158 517 285 q 476 0 528 108 q 315 158 428 107 q 450 458 438 285 q 182 336 294 444 q 33 483 135 439 q 182 631 135 531 q 450 510 294 525 q 415 610 439 574 q 336 694 392 646 q 415 779 392 743 q 450 879 439 815 q 182 758 294 864 q 33 906 135 858 q 182 1053 135 950 q 450 931 294 944 q 315 1231 438 1104 q 476 1389 428 1282 q 639 1231 528 1281 q 504 931 517 1104 q 772 1053 660 944 q 921 906 817 951 q 772 758 819 858 q 503 879 660 864 q 538 778 514 815 q 618 694 561 742 z "},"•":{"ha":578,"x_min":17,"x_max":561,"o":"m 561 594 q 481 403 561 483 q 290 324 401 324 q 97 403 178 324 q 17 594 17 482 q 97 788 17 708 q 290 868 176 868 q 482 788 403 868 q 561 594 561 707 z "},"…":{"ha":1151,"x_min":17,"x_max":1135,"o":"m 1135 169 q 1085 50 1135 100 q 965 0 1035 0 q 844 49 894 0 q 794 169 794 99 q 844 290 794 240 q 965 340 894 340 q 1085 290 1036 340 q 1135 169 1135 240 m 746 169 q 696 50 746 100 q 576 0 646 0 q 456 49 506 0 q 406 169 406 99 q 456 290 406 240 q 576 340 506 340 q 697 290 647 340 q 746 169 746 240 m 357 169 q 307 50 357 100 q 188 0 257 0 q 67 49 117 0 q 17 169 17 99 q 67 290 17 240 q 188 340 117 340 q 308 290 258 340 q 357 169 357 240 z "},"‰":{"ha":1181,"x_min":17,"x_max":1164,"o":"m 420 1077 q 455 1043 420 1077 q 489 910 489 1008 q 419 742 489 811 q 251 674 350 674 q 85 743 154 674 q 17 910 17 813 q 85 1077 17 1008 q 251 1146 153 1146 q 420 1077 351 1146 m 355 808 q 376 829 355 808 q 397 910 397 850 q 355 1012 397 969 q 251 1054 313 1054 q 150 1012 192 1054 q 108 910 108 969 q 150 808 108 850 q 251 765 192 765 q 355 808 313 765 m 919 403 q 953 369 919 403 q 988 236 988 335 q 918 69 988 138 q 750 0 849 0 q 584 69 653 0 q 515 236 515 139 q 583 403 515 335 q 750 472 651 472 q 919 403 850 472 m 853 134 q 875 155 853 134 q 896 236 896 176 q 853 338 896 296 q 750 381 811 381 q 649 338 690 381 q 607 236 607 296 q 649 134 607 176 q 750 92 690 92 q 853 134 811 92 m 776 1149 l 329 0 l 218 0 l 665 1149 l 776 1149 m 1095 881 q 1130 847 1095 881 q 1164 714 1164 813 q 1094 547 1164 615 q 926 478 1025 478 q 760 547 829 478 q 692 714 692 617 q 760 881 692 813 q 926 950 828 950 q 1095 881 1026 950 m 1030 612 q 1051 633 1030 612 q 1072 714 1072 654 q 1030 816 1072 774 q 926 858 988 858 q 825 816 867 858 q 783 714 783 774 q 825 612 783 654 q 926 569 867 569 q 1030 612 988 569 z "},"‹":{"ha":299,"x_min":17,"x_max":282,"o":"m 282 299 l 222 299 l 17 563 l 222 828 l 282 828 l 161 563 l 282 299 z "},"›":{"ha":299,"x_min":17,"x_max":282,"o":"m 76 299 l 17 299 l 138 563 l 17 828 l 76 828 l 282 563 l 76 299 z "},"€":{"ha":1040,"x_min":17,"x_max":1024,"o":"m 1024 1042 l 746 1042 q 464 947 589 1042 q 299 703 339 853 l 978 703 l 893 593 l 281 593 l 281 563 l 872 563 l 788 451 l 299 451 q 467 208 343 301 q 746 114 590 114 l 746 0 q 387 127 544 0 q 185 451 229 254 l 17 451 l 101 563 l 169 563 l 169 593 l 39 593 l 122 703 l 185 703 q 385 1026 228 901 q 746 1151 543 1151 l 1024 1151 l 1024 1042 z "},"™":{"ha":647,"x_min":17,"x_max":631,"o":"m 253 1121 l 179 1121 l 179 833 l 89 833 l 89 1121 l 17 1121 l 17 1151 l 253 1151 l 253 1121 m 631 833 l 540 833 l 540 1089 l 446 922 l 351 1089 l 351 833 l 263 833 l 263 1151 l 353 1151 l 446 985 l 540 1151 l 631 1151 l 631 833 z "},"−":{"ha":692,"x_min":17,"x_max":675,"o":"m 675 504 l 17 504 l 17 649 l 675 649 l 675 504 z "}}}
